<svg width="685" height="680" viewBox="0 0 685 680" fill="none" xmlns="http://www.w3.org/2000/svg">
<path d="M607.917 176.201C606.438 174.694 605.57 173.317 604.346 171.402C603.709 170.433 603.02 169.387 602.255 168.264C604.372 165.814 606.157 162.981 607.509 159.869L612.916 147.544L599.603 145.629C597.359 145.298 593.737 144.354 589.503 143.231C581.342 141.087 570.86 138.332 559.434 137.132C563.336 135.423 566.652 132.335 568.972 128.15L571.166 124.195C571.166 124.195 570.579 118.657 568.437 116.923C569.254 115.212 569.891 113.324 570.325 111.257L572.135 102.428L563.616 99.5195C562.291 99.0594 560.965 98.7283 559.663 98.5243C559.179 96.9159 558.465 95.2065 557.496 93.3951L552.446 84.1319L543.341 89.4651C541.071 90.7925 539.159 92.3228 537.603 94.0332C536.251 93.7771 534.797 93.6501 533.267 93.6501C533.267 93.6501 528.065 93.063 522.326 95.1555L514.981 87.5257L506.284 78.2375C498.148 69.5354 487.131 66.9588 475.91 71.2458C471.625 66.9588 464.942 63.411 454.563 63.411C451.043 63.411 447.956 63.8451 446.146 64.0751C446.146 64.0751 431.864 66.6777 423.83 74.3075L414.088 69.6635C407.559 79.9469 396.388 83.2137 396.388 83.2137C395.623 80.2019 394.322 77.3953 392.461 74.8177L393.099 71.1938C393.099 71.0918 395.291 58.8179 401.974 48.4064L413.603 30.2891L397.128 32.1516C397.179 30.5192 397.103 28.5797 396.872 26.2832L395.393 12.1969L382.488 18.0402C381.06 18.6784 379.862 19.3166 378.74 19.9037L376.189 14.4684L370.273 17.5301C369.686 16.0758 368.92 14.4174 367.875 12.5029L361.066 0L351.4 10.4365C350.405 11.5077 349.563 12.5029 348.849 13.4471L342.983 7.60378L337.067 13.4732C336.326 12.529 335.51 11.5337 334.516 10.4614L324.748 0L317.913 12.5539C316.867 14.4684 316.128 16.1008 315.541 17.5562L309.65 14.4934L307.099 19.9287C305.977 19.3415 304.779 18.7044 303.35 18.0402L290.395 12.2229L288.966 26.3592C288.736 28.6308 288.66 30.5442 288.711 32.1776L272.21 30.3152L283.865 48.4324C290.573 58.8179 292.715 71.0918 292.715 71.1938L293.327 74.8177C291.466 77.4203 290.14 80.228 289.399 83.2387C289.399 83.2387 278.841 78.7216 271.777 69.6635L261.83 74.4096C250.481 66.7537 243.442 63.7691 231.2 63.411C220.82 63.1309 214.138 66.9588 209.853 71.2458C198.606 66.9838 187.614 69.5614 179.504 78.2625C179.504 78.2625 174.174 84.0548 170.807 87.5517C167.44 91.0725 162.467 93.9822 162.467 93.9822C162.467 93.9822 155.403 92.3998 148.134 94.0582C146.579 92.3488 144.64 90.8174 142.345 89.4651L133.214 84.1319L128.19 93.4461C127.221 95.2325 126.532 96.9159 126.073 98.5243C124.773 98.7283 123.447 99.0594 122.121 99.5195L113.653 102.479L115.413 111.257C115.846 113.376 116.458 115.263 117.299 116.974C116.815 117.918 116.382 118.913 116.025 119.959L114.597 124.22L116.764 128.175C119.06 132.335 122.35 135.448 126.277 137.158C114.826 138.358 104.37 141.113 96.1829 143.257C91.975 144.354 88.3532 145.323 86.1087 145.655L72.7449 147.595L75.7795 154.485L78.2031 159.971C79.5793 163.032 81.3907 165.865 83.4822 168.315C82.691 169.438 79.3243 174.72 77.82 176.226L71.0615 183.09L77.5399 190.235C78.3561 191.102 85.6247 198.733 97.3812 198.758C100.595 198.758 103.783 198.197 106.945 197.074C110.082 201.974 113.806 206.949 117.197 209.398C110.949 216.748 103.834 223.128 93.7094 227.951L85.2416 231.982L88.8883 241.653C91.2609 247.497 95.8769 253.902 104.803 256.352C102.89 262.068 101.972 267.477 101.156 272.3C99.2436 283.758 98.4274 288.504 88.3532 292.051L79.2993 295.216L81.9009 304.453C83.9923 311.981 87.129 316.957 90.5207 320.249L84.5024 326.883C84.5024 326.883 98.7845 337.601 112.785 338.902C112.99 338.927 124.925 339.693 130.281 332.855C132.424 340.611 135.815 347.756 138.902 354.238C145.226 367.559 148.593 375.444 144.359 382.639L134.795 398.869L153.592 398.078C161.804 397.746 169.43 397.236 176.035 395.602C176.035 395.96 176.01 396.292 175.984 396.624L174.454 410.556L190.929 407.085C192.664 406.575 194.296 405.886 195.775 405.096C205.976 417.038 223.319 426.352 246.681 426.352H248.033L221.177 437.375L240.738 447.557C253.618 454.268 267.926 459.882 284.248 464.654L281.978 472.488L291.797 475.371C297.459 477.03 317.939 482.465 342.881 482.465C367.824 482.465 388.278 477.03 393.965 475.371L403.759 472.488L401.488 464.68C417.837 459.908 432.145 454.293 445.024 447.583L464.585 437.4L437.704 426.377H439.057C462.418 426.377 479.734 417.064 489.937 405.121C491.416 405.912 493.048 406.601 494.782 407.111L511.257 410.582L509.753 396.675C509.727 396.343 509.702 395.986 509.702 395.628C516.282 397.261 523.933 397.746 532.12 398.103L550.916 398.894L541.402 382.69C537.144 375.495 540.535 367.61 546.836 354.29C549.921 347.808 553.313 340.662 555.456 332.906C559.077 335.661 562.979 337.32 566.856 338.188C566.856 338.188 569.866 339.08 572.747 339.157C581.061 339.412 585.219 337.04 590.931 333.441L601.311 326.908L595.241 320.274C598.634 317.008 601.77 312.032 603.862 304.529L606.489 295.267L597.41 292.102C587.309 288.555 586.519 283.809 584.607 272.351C583.791 267.528 582.897 262.093 580.959 256.403C589.886 253.928 594.476 247.522 596.848 241.704L600.47 232.008L592.002 227.976C581.877 223.153 574.762 216.773 568.488 209.424C571.905 206.975 575.629 201.999 578.792 197.1C581.928 198.222 585.117 198.758 588.356 198.784C600.113 198.784 607.407 191.154 608.198 190.286L614.675 183.141L607.917 176.201Z" fill="white"/>
<path fill-rule="evenodd" clip-rule="evenodd" d="M259.991 301.953V224.123C259.991 216.876 257.9 209.629 255.4 202.968H315.768C321.303 210.573 331.351 215.676 342.879 215.676C354.356 215.676 364.404 210.573 369.964 202.968H430.331C427.78 209.654 425.715 216.876 425.715 224.123V301.953H259.991ZM342.853 408.311C334.411 399.916 328.392 398.997 305.643 398.997C278.456 398.997 259.991 383.048 259.991 357.556V306.52H425.69V357.556C425.69 383.048 407.25 398.997 380.012 398.997C357.288 398.972 351.269 399.916 342.853 408.311Z" fill="#FFDD2D"/>
<path d="M269.611 417.932V433.472L256.12 438.908C267.52 444.088 281.675 449.242 298.303 453.044L305.954 428.113C289.632 424.77 278.257 421.274 269.611 417.932Z" fill="white"/>
<path d="M342.853 438.984C326.912 438.984 313.497 437.326 308.142 436.101L300.058 462.257C312.758 465.37 327.627 467.666 342.853 467.666C358.027 467.666 372.896 465.396 385.648 462.257L377.538 436.101C372.182 437.351 358.818 438.984 342.853 438.984Z" fill="white"/>
<path d="M416.105 417.932C407.434 421.274 396.084 424.745 379.762 428.139L387.438 453.07C404.093 449.268 418.196 444.113 429.596 438.933L416.131 433.497V417.932H416.105Z" fill="white"/>
<path d="M241.349 167.218C262.467 155.811 314.086 130.701 279.094 103.627C274.325 99.952 269.072 96.6352 264.659 92.5273C259.202 96.7372 266.7 107.2 268.587 111.028C268.587 111.028 256.931 112.201 254.152 112.201C236.146 112.125 217.273 101.458 226.837 81.0186C219.67 82.4979 218.803 89.3885 216.611 95.2829C212.02 92.1692 204.037 85.4836 197.891 86.4278C202.889 102.428 223.93 116.845 240.252 120.112C223.751 129.094 193.147 135.779 177.054 116.437C165.756 138.306 181.491 147.441 196.922 158.899C138.186 185.718 146.858 215.803 108.322 239.484C113.32 241.832 135.61 237.111 137.6 236.83C129.234 247.675 125.332 252.269 122.884 257.55C120.537 262.501 119.492 268.09 117.171 280.134C115.36 289.652 112.044 299.145 100.466 305.448C105.006 313.664 115.08 307.234 119.288 306.137C118.727 307.004 117.298 316.905 113.524 321.677C133.315 320.401 124.159 278.654 143.95 288.708C149.535 291.515 151.219 298.099 148.642 303.483C135.635 330.327 165.195 353.983 163.587 377.511C170.857 377.46 178.381 377.254 183.124 367.43C185.598 372.33 189.423 379.22 191.565 385.855L197.483 375.775C201.129 392.463 216.687 407.877 237.702 409.254C227.679 393.382 239.692 371.717 215.336 348.675C218.37 346.225 225.384 341.504 227.883 338.289C197.993 341.811 166.801 318.156 180.956 306.928C190.214 299.604 194.269 314.813 208.551 312.261L202.966 307.438C204.929 305.499 207.174 302.973 209.494 301.059C203.425 300.318 196.794 296.439 196.794 296.439L200.415 290.443C165.399 290.392 164.506 263.599 178.737 262.526C185.419 262.042 194.065 274.367 215.616 271.79C212.861 268.473 211.765 263.446 210.463 259.746C215.667 259.261 221.788 259.312 226.71 256.913C216.177 255.561 213.524 252.013 204.751 245.378L214.927 241.654C200.16 234.279 201.053 221.443 200.594 208.072C208.322 212.512 217.401 219.401 227.092 216.211C229.388 215.446 230.867 214.374 230.918 211.975C217.095 206.438 208.22 185.131 241.349 167.218ZM216.126 169.31C197.636 189.086 205.643 200.927 209.367 204.576C202.481 203.095 192.204 194.317 194.549 185.82C192.357 188.448 190.112 191.307 187.817 194.241C183.226 200.366 179.12 206.362 175.473 212.179C169.862 228.868 180.14 246.094 197.636 253.723C178.202 250.865 169.48 233.564 169.531 222.54C160.247 240.096 155.809 256.122 156.217 269.57C156.396 274.571 156.829 279.241 157.492 283.655C161.956 292.127 169.123 295.24 181.899 296.798C170.296 297.538 164.148 297.002 159.099 291.693C167.005 325.709 203.986 355.156 219.033 380.368C203.96 360.771 172.769 331.578 161.854 310.475C161.012 318.105 163.052 337.651 172.539 349.67C158.563 335.916 157.467 315.094 158.385 302.896C154.841 294.118 152.596 284.319 152.29 273.168C152.009 262.91 152.723 254.003 154.279 246.017C145.454 258.571 132.703 263.42 126.428 282.533C127.653 257.882 146.042 257.499 159.814 227.567C165.144 214.477 172.896 203.172 181.466 190.362C170.576 193.935 162.415 196.487 149.815 210.292C158.767 189.112 210.489 165.303 234.183 142.261C227.067 143.766 198.018 144.507 185.955 136.443C207.812 142.363 256.447 135.601 274.81 123.046C262.135 141.292 234.54 142.338 200.951 178.624C205.235 175.205 210.949 171.76 216.126 169.31Z" fill="white"/>
<path d="M568.515 280.133C566.195 268.09 565.174 262.501 562.828 257.55C560.405 252.268 556.478 247.675 548.087 236.83C550.076 237.11 572.418 241.831 577.391 239.484C538.855 215.803 547.526 185.718 488.765 158.899C504.195 147.441 519.931 138.306 508.632 116.411C492.54 135.779 461.935 129.094 445.434 120.086C461.782 116.82 482.797 102.427 487.796 86.4027C481.623 85.4585 473.641 92.1441 469.051 95.2318C466.857 89.3364 466.015 82.4468 458.849 80.9414C468.413 101.406 449.515 112.073 431.484 112.15C428.729 112.15 417.1 110.975 417.1 110.975C418.961 107.149 426.46 96.6861 420.975 92.4751C416.564 96.6091 411.361 99.9009 406.566 103.576C371.55 130.65 423.22 155.785 444.338 167.166C477.416 185.08 468.617 206.387 454.769 211.848C454.82 214.247 456.299 215.318 458.62 216.084C468.26 219.299 477.391 212.409 485.067 207.943C484.633 221.315 485.551 234.176 470.785 241.525L480.935 245.251C472.162 251.886 469.535 255.433 459.002 256.785C463.899 259.183 470.071 259.132 475.248 259.618C473.922 263.317 472.775 268.345 470.071 271.661C491.647 274.213 500.319 261.914 506.949 262.399C521.129 263.471 520.288 290.264 485.245 290.315L488.867 296.312C488.867 296.312 482.236 300.191 476.14 300.93C478.462 302.819 480.731 305.37 482.695 307.31L477.11 312.133C491.367 314.685 495.447 299.476 504.704 306.8C518.859 318.027 487.694 341.683 457.778 338.161C460.303 341.377 467.316 346.123 470.351 348.573C445.97 371.59 457.956 393.28 447.984 409.177C468.949 407.774 484.506 392.361 488.204 375.672L494.121 385.752C496.238 379.118 500.114 372.227 502.537 367.328C507.255 377.152 514.83 377.356 522.124 377.407C520.466 353.88 550 330.225 537.043 303.38C534.443 298.022 536.125 291.438 541.711 288.605C561.553 278.551 552.346 320.299 572.163 321.574C568.362 316.803 566.96 306.902 566.424 306.035C570.607 307.132 580.656 313.562 585.195 305.319C573.693 299.145 570.378 289.652 568.515 280.133ZM531.458 245.99C533.015 254.003 533.805 262.883 533.448 273.142C533.117 284.293 530.897 294.092 527.352 302.87C528.244 315.068 527.174 335.891 513.197 349.644C522.659 337.6 524.726 318.078 523.884 310.449C512.917 331.553 481.752 360.744 466.653 380.342C481.725 355.13 518.706 325.657 526.638 291.668C521.537 296.95 515.442 297.512 503.812 296.771C516.564 295.215 523.731 292.101 528.193 283.629C528.857 279.24 529.291 274.545 529.469 269.544C529.903 256.096 525.44 240.071 516.156 222.515C516.233 233.538 507.51 250.84 488.051 253.697C505.496 246.041 515.799 228.817 510.214 212.154C506.592 206.336 502.512 200.314 497.87 194.215C495.574 191.28 493.33 188.423 491.112 185.794C493.458 194.291 483.18 203.07 476.293 204.55C480.043 200.901 488.026 189.061 469.561 169.284C474.738 171.734 480.451 175.179 484.761 178.547C451.172 142.261 423.603 141.24 410.876 122.969C429.264 135.524 477.901 142.312 499.731 136.367C487.694 144.429 458.62 143.69 451.504 142.184C475.197 165.227 526.97 189.035 535.896 210.215C523.297 196.41 515.111 193.858 504.271 190.285C512.866 203.121 520.568 214.4 525.899 227.49C539.696 257.423 558.11 257.78 559.308 282.456C553.035 263.393 540.308 258.545 531.458 245.99Z" fill="white"/>
<path d="M369.939 202.941C364.404 210.545 354.331 215.649 342.879 215.649C340.201 215.649 337.625 215.343 335.177 214.883C335.866 218.022 337.472 221.263 340.813 224.044C339.462 233.155 343.39 241.678 353.158 243.897C354.203 248.542 357.059 252.038 361.906 253.696L355.095 261.556C352.468 264.567 349.051 265.536 346.297 265.179L315.897 261.734C317.222 258.367 313.703 254.462 304.062 256.121L315.999 222.692L308.729 207.202L294.932 218.992L293.912 254.053L287.97 251.17C280.318 247.853 278.048 261.811 285.343 261.862L288.276 261.887C288.072 263.317 288.531 264.899 289.678 265.409C288.301 265.97 287.893 268.548 289.602 269.466C287.868 270.308 287.613 272.962 289.015 274.11C287.51 276.688 287.229 282.276 292.561 283.679C296.947 284.828 299.701 280.133 300.594 277.402L347.903 292.049C354.56 293.964 359.355 292.892 364.914 288.017L377.259 277.224C375.702 284.293 378.227 290.646 383.609 292.765C383.609 292.765 382.767 299.246 383.099 301.925L399.651 301.951H425.715V224.121C425.715 216.874 427.782 209.627 430.332 202.941H399.651H369.939Z" fill="white"/>
<path d="M299.094 333.902L300.012 335.05C301.287 336.631 302.052 336.249 303.506 335.407L305.648 334.259C307 333.237 315.799 336.606 316.283 329.283C317.253 334.744 310.749 346.252 314.677 352.682L319.956 361.333L302.715 361.588C300.828 361.588 299.834 362.736 299.324 363.757L294.809 373.122C293.635 375.597 293.712 378.149 295.192 379.858L298.252 383.304C298.252 383.304 300.752 381.186 301.567 378.404L300.216 377.001C299.094 375.93 299.094 374.908 299.706 373.582L302.485 367.815C303.557 365.543 304.654 365.059 307.102 365.645L321.052 368.657C322.073 368.912 323.731 369.397 324.725 367.687C326.434 364.65 329.443 364.446 332.504 364.931C340.154 366.079 357.829 367.917 364.129 360.542C371.524 370.366 385.985 370.366 385.042 375.52L381.981 392.413H386.571L389.377 375.138C389.683 373.122 390.933 370.366 388.765 368.81C387.873 368.121 387.465 367.764 385.449 364.293C382.823 359.7 382.951 352.81 380.425 346.865C382.823 344.032 385.424 343.062 387.694 343.598C392.795 344.848 394.172 353.652 401.415 360.823C400.6 357.633 400.242 354.137 398.533 351.101C398.533 351.101 403.557 355.005 404.858 359.573C405.675 362.43 406.516 364.523 409.091 365.849C410.801 366.462 412.841 365.645 414.882 363.196C414.882 363.196 410.112 356.408 406.618 351.968C401.823 345.869 395.421 339.745 386.7 340.459C383.945 340.689 381.292 341.94 378.768 343.445C368.847 337.882 361.145 343.777 358.084 343.777L339.517 342.68C335.871 342.45 332.988 338.214 332.988 338.214C332.529 322.495 319.905 316.242 315.544 316.242C315.544 316.242 315.952 313.411 314.804 312.416L310.927 317.289L300.165 313.36L308.607 320.274L299.451 330.916C298.508 331.962 298.635 333.339 299.094 333.902Z" fill="white"/>
<path d="M286.923 355.975C284.323 357.991 284.45 360.798 286.006 363.937L287.561 366.845L291.616 363.758L290.698 361.767C290.035 360.364 290.061 358.936 291.208 358.042L297.023 353.653C298.656 352.454 299.166 352.326 300.9 352.581L313.167 355.159C313.167 355.159 311.306 352.454 310.693 349.697L299.14 348.167C297.508 347.963 296.513 348.651 295.085 349.748L286.923 355.975Z" fill="white"/>
<path d="M365.376 392.413H370.018L377.465 374.066C377.72 373.427 378.077 373.147 378.358 372.611C375.016 371.284 373.053 370.366 370.273 368.758C372.134 371.259 373.588 372.33 372.823 374.653L365.376 392.413Z" fill="white"/>
<path d="M369.327 144.251L377.921 94.8228L345.354 105.898V156.857L369.327 144.251ZM350.862 110.9L372.463 102.938C372.463 102.938 368.255 106.358 363.231 109.802C358.768 112.89 350.862 116.182 350.862 116.182V110.9ZM350.862 122.867L370.627 115.799C370.627 115.799 368.255 118.299 363.256 121.744C358.793 124.807 350.888 128.099 350.888 128.099V122.867H350.862ZM350.862 135.575L368.255 128.89C368.255 128.89 368.255 131.007 363.231 134.427C358.768 137.515 350.862 140.807 350.862 140.807V135.575Z" fill="white"/>
<path d="M311.384 187.964L312.098 189.112H318.806L318.882 190.286C318.959 191.409 319.214 192.557 319.596 193.731C320.642 196.92 322.708 200.263 326.023 202.969C329.874 206.081 335.434 208.327 342.83 208.327C358.872 208.327 366.115 197.942 366.804 190.286L366.855 189.112H373.587L374.302 187.964C380.627 178.063 388.355 167.064 397.332 165.483L372.848 151.27L342.83 167.6L312.786 151.27L288.328 165.483C297.306 167.039 305.034 178.063 311.384 187.964Z" fill="white"/>
<path d="M340.309 156.857V105.898L307.792 94.8228L316.335 144.251L340.309 156.857ZM334.826 140.858C334.826 140.858 326.919 137.54 322.456 134.478C317.432 131.058 317.432 128.915 317.432 128.915L334.851 135.6V140.858H334.826ZM334.826 110.9V116.182C334.826 116.182 326.919 112.89 322.456 109.802C317.406 106.358 313.173 102.938 313.173 102.938L334.826 110.9ZM334.826 122.867V128.124C334.826 128.124 326.919 124.832 322.456 121.77C317.406 118.325 315.061 115.825 315.061 115.825L334.826 122.867Z" fill="white"/>
<path d="M342.852 73.0322C324.259 73.0322 310.309 79.1317 307.273 86.2764L342.852 100.337L378.379 86.2764C375.369 79.1317 361.444 73.0322 342.852 73.0322Z" fill="white"/>
<path d="M342.857 52.6172C356.553 52.6172 370.273 56.7761 379.505 62.1604C381.011 57.1842 382.617 53.6374 384.811 49.5805L376.395 50.8818L369.584 36.3363L356.859 43.0989L342.857 29.2427L328.83 43.0989L316.129 36.3363L309.268 50.8818L300.852 49.5805C303.045 53.6374 304.626 57.1842 306.183 62.1604C315.441 56.7761 329.111 52.6172 342.857 52.6172Z" fill="white"/>
<path d="M574.939 164.64C579.529 164.053 583.228 162.521 587.742 159.154C578.025 156.576 557.672 149.201 540.305 152.519C534.566 153.284 531.379 155.607 533.418 156.933C542.753 163.133 554.281 177.501 562.671 194.266C570.042 185.105 566.956 173.086 565.4 169.641C580.09 178.496 583.942 182.808 590.752 181.124C587.104 175.535 581.978 170.508 574.939 164.64Z" fill="white"/>
<path d="M123.037 194.24C131.428 177.475 142.955 163.109 152.315 156.908C154.407 155.581 151.167 153.258 145.48 152.493C128.086 149.201 107.684 156.55 97.9667 159.128C102.532 162.496 106.153 164.027 110.795 164.614C103.731 170.508 98.6038 175.51 94.957 181.099C101.818 182.783 105.643 178.47 120.307 169.616C118.803 173.086 115.691 185.08 123.037 194.24Z" fill="white"/>
<path fill-rule="evenodd" clip-rule="evenodd" d="M224.873 349.85C231.631 344.49 237.241 341.812 236.961 328.823C226.81 334.028 198.017 333.748 185.979 317.161C182.587 312.44 186.209 310.067 189.498 313.793C197.736 323.132 212.987 318.896 218.547 316.217C217.655 313.002 215.181 308.817 213.115 307.031C215.207 304.989 221.098 301.927 222.296 296.67C219.16 294.961 206.943 293.735 206.943 293.735C208.907 291.847 211.355 289.219 209.877 282.202C197.405 286.03 181.975 280.823 178.481 276.205C175.038 271.663 178.558 267.401 181.464 270.413C187.688 276.945 218.343 284.422 229.744 273.067C225.51 271.892 220.843 268.115 220.001 265.768C230.56 264.697 238.976 258.47 239.665 250.712C233.824 250.712 222.806 250.279 219.032 247.471C224.082 245.609 227.295 243.772 228.902 238.107C209.596 236.933 208.065 222.592 207.963 220.219C220.537 227.466 242.674 224.251 236.935 206.388C226.479 205.827 215.946 188.909 244.689 173.368C270.831 159.206 300.542 143.946 297.915 118.811C296.206 102.734 269.759 91.7616 266.393 83.6217C255.349 88.8779 253.131 94.9774 258.104 105.21C258.104 105.21 233.493 107.659 231.554 92.5018C230.713 85.7142 235.252 79.3607 240.124 74.4866C237.369 74.4866 218.827 69.5104 213.242 84.617C202.862 77.5233 193.962 77.7784 186.974 85.2801C198.144 91.9147 205.056 114.677 223.521 121.389C210.386 128.507 189.141 125.522 176.746 103.627C165.015 121.312 158.256 138.817 183.429 157.521C137.649 178.369 137.981 218.229 98.1436 237.214C102.173 248.059 110.691 248.059 121.557 246.374C104.341 268.753 119.006 292.179 91.7422 301.748C94.2927 310.883 99.4188 318.182 109.468 315.503C106.611 319.968 104.724 319.866 100.286 324.766C115.18 334.156 132.855 327.368 136.859 297.231C137.573 291.847 144.969 295.216 142.418 300.498C125.432 335.636 168.382 362.073 153.181 387.846C166.57 387.284 176.797 386.238 182.358 381.721C185.086 387.131 186.745 392.49 186.133 397.772C193.528 396.267 196.232 391.903 196.742 386.85C201.588 401.013 218.93 416.145 246.679 416.145C231.962 395.118 245.658 373.81 224.873 349.85ZM197.481 375.75L191.565 385.829C189.447 379.195 185.596 372.305 183.123 367.406C178.354 377.23 170.83 377.434 163.587 377.485C165.193 353.958 135.635 330.303 148.641 303.458C151.243 298.099 149.534 291.516 143.948 288.683C124.132 278.629 133.313 320.377 113.523 321.652C117.298 316.881 118.725 306.979 119.286 306.112C115.078 307.21 105.004 313.64 100.465 305.423C112.044 299.12 115.359 289.627 117.17 280.109C119.465 268.064 120.536 262.476 122.857 257.526C125.305 252.244 129.207 247.65 137.573 236.805C135.584 237.086 113.319 241.807 108.295 239.46C146.831 215.779 138.159 185.693 196.895 158.873C181.49 147.417 165.754 138.281 177.028 116.412C193.12 135.755 223.7 129.069 240.226 120.086C223.904 116.821 202.862 102.428 197.889 86.4034C204.035 85.4592 212.018 92.1447 216.584 95.2575C218.802 89.3381 219.67 82.4735 226.836 80.9931C217.272 101.433 236.145 112.099 254.151 112.176C256.956 112.176 268.586 111.002 268.586 111.002C266.724 107.174 259.2 96.7128 264.658 92.5018C269.07 96.6358 274.324 99.9276 279.093 103.602C314.11 130.702 262.465 155.812 241.347 167.218C208.218 185.132 217.094 206.465 230.917 211.9C230.866 214.299 229.387 215.371 227.091 216.136C217.4 219.351 208.32 212.436 200.593 207.996C201.052 221.367 200.133 234.228 214.926 241.577L204.749 245.277C213.497 251.938 216.176 255.459 226.708 256.837C221.786 259.235 215.691 259.184 210.463 259.669C211.789 263.369 212.86 268.396 215.615 271.714C194.064 274.266 185.418 261.966 178.736 262.451C164.505 263.522 165.397 290.317 200.415 290.368L196.793 296.364C196.793 296.364 203.423 300.243 209.52 300.983C207.198 302.872 204.954 305.423 202.99 307.363L208.575 312.185C194.268 314.737 190.238 299.529 180.954 306.851C166.8 318.08 197.991 341.735 227.881 338.213C225.383 341.429 218.343 346.175 215.334 348.624C239.69 371.642 227.677 393.332 237.701 409.23C216.686 407.851 201.129 392.414 197.481 375.75Z" fill="black"/>
<path fill-rule="evenodd" clip-rule="evenodd" d="M159.05 291.695C164.125 296.978 170.247 297.539 181.85 296.798C169.073 295.242 161.907 292.129 157.444 283.657C156.806 279.268 156.373 274.573 156.194 269.571C155.786 256.124 160.224 240.098 169.507 222.542C169.456 233.541 178.152 250.842 197.612 253.724C180.117 246.069 169.839 228.844 175.449 212.181C179.097 206.364 183.202 200.342 187.793 194.242C190.088 191.309 192.332 188.45 194.526 185.821C192.179 194.319 202.458 203.097 209.344 204.578C205.62 200.928 197.612 189.114 216.103 169.337C210.95 171.787 205.237 175.232 200.902 178.601C234.466 142.314 262.085 141.293 274.761 123.022C256.398 135.577 207.763 142.365 185.906 136.42C197.969 144.483 227.018 143.743 234.133 142.237C210.466 165.279 158.744 189.088 149.767 210.268C162.366 196.437 170.527 193.911 181.442 190.364C172.848 203.199 165.121 214.478 159.789 227.569C146.017 257.476 127.604 257.858 126.405 282.509C132.68 263.396 145.431 258.547 154.255 245.992C152.7 254.005 151.96 262.885 152.241 273.144C152.547 284.296 154.791 294.094 158.336 302.872C157.444 315.07 158.514 335.892 172.491 349.646C163.003 337.627 160.963 318.08 161.805 310.451C172.746 331.554 203.937 360.747 219.01 380.344C203.937 355.158 166.982 325.71 159.05 291.695Z" fill="black"/>
<path fill-rule="evenodd" clip-rule="evenodd" d="M504.296 190.362C515.135 193.935 523.322 196.461 535.92 210.291C526.994 189.111 475.196 165.304 451.528 142.261C458.644 143.741 487.718 144.507 499.757 136.443C477.925 142.388 429.289 135.601 410.9 123.046C423.602 141.317 451.197 142.337 484.785 178.624C480.475 175.256 474.762 171.81 469.585 169.361C488.05 189.138 480.067 200.977 476.319 204.627C483.204 203.147 493.482 194.369 491.136 185.871C493.355 188.499 495.599 191.357 497.894 194.292C502.51 200.416 506.591 206.413 510.238 212.231C515.849 228.92 505.546 246.144 488.101 253.774C507.56 250.916 516.283 233.59 516.181 222.591C525.489 240.148 529.927 256.172 529.519 269.62C529.341 274.623 528.907 279.292 528.244 283.707C523.756 292.179 516.589 295.292 503.836 296.848C515.467 297.563 521.562 297.027 526.662 291.745C518.731 325.76 481.776 355.208 466.677 380.42C481.776 360.821 512.916 331.629 523.909 310.526C524.75 318.156 522.709 337.703 513.222 349.721C527.198 335.967 528.27 315.144 527.376 302.947C530.896 294.169 533.115 284.37 533.472 273.218C533.804 262.961 533.013 254.055 531.483 246.068C540.332 258.623 553.059 263.471 559.358 282.584C558.16 257.908 539.746 257.526 525.948 227.619C520.593 214.452 512.89 203.172 504.296 190.362Z" fill="black"/>
<path fill-rule="evenodd" clip-rule="evenodd" d="M564.179 246.322C575.018 248.031 583.537 248.031 587.592 237.187C547.755 218.201 548.087 178.368 502.307 157.494C527.479 138.815 520.696 121.284 508.989 103.6C496.62 125.495 475.299 128.48 462.215 121.361C480.629 114.65 487.592 91.8873 498.762 85.2528C491.774 77.751 482.848 77.496 472.467 84.5896C466.857 69.4831 448.341 74.4592 445.561 74.4592C450.407 79.3074 454.998 85.6619 454.131 92.4745C452.218 107.632 427.607 105.182 427.607 105.182C432.58 94.9501 430.36 88.8517 419.318 83.5944C415.951 91.7343 389.53 102.708 387.795 118.784C385.143 143.919 414.905 159.178 441.022 173.341C469.764 188.881 459.232 205.825 448.8 206.361C443.011 224.224 465.148 227.438 477.747 220.192C477.696 222.565 476.089 236.906 456.783 238.08C458.415 243.744 461.603 245.582 466.653 247.445C462.878 250.277 451.861 250.686 446.046 250.686C446.734 258.443 455.176 264.695 465.735 265.741C464.893 268.089 460.201 271.865 455.992 273.039C467.392 284.395 498.048 276.918 504.271 270.386C507.127 267.374 510.622 271.636 507.204 276.178C503.684 280.822 488.28 286.027 475.783 282.174C474.355 289.166 476.752 291.821 478.716 293.708C478.716 293.708 466.5 294.933 463.337 296.643C464.536 301.9 470.453 304.937 472.518 307.003C470.427 308.79 467.953 312.975 467.061 316.189C472.671 318.895 487.923 323.105 496.109 313.766C499.425 310.066 503.047 312.413 499.654 317.134C487.617 333.72 458.823 333.976 448.647 328.795C448.366 341.784 453.977 344.463 460.736 349.822C439.924 373.784 453.671 395.091 438.955 416.067C466.678 416.067 484.021 400.934 488.867 386.772C489.428 391.799 492.08 396.188 499.45 397.694C498.89 392.411 500.521 387.053 503.225 381.643C508.836 386.16 519.063 387.206 532.452 387.767C517.278 361.994 560.226 335.558 543.19 300.42C540.665 295.137 548.061 291.77 548.775 297.154C552.754 327.29 570.453 334.078 585.373 324.687C580.885 319.788 579.022 319.89 576.166 315.424C586.215 318.104 591.316 310.805 593.891 301.67C566.756 292.127 581.42 268.701 564.179 246.322ZM566.475 306.136C567.011 307.003 568.413 316.905 572.213 321.676C552.397 320.4 561.578 278.652 541.761 288.707C536.176 291.513 534.519 298.098 537.094 303.481C550.05 330.327 520.517 353.981 522.175 377.509C514.881 377.458 507.306 377.254 502.588 367.429C500.164 372.329 496.263 379.219 494.146 385.854L488.229 375.773C484.556 392.462 468.999 407.875 448.035 409.278C458.007 393.407 446.02 371.716 470.402 348.674C467.341 346.224 460.328 341.478 457.803 338.263C487.719 341.784 518.884 318.129 504.73 306.901C495.472 299.577 491.391 314.786 477.134 312.234L482.721 307.411C480.756 305.472 478.487 302.946 476.165 301.032C482.262 300.292 488.892 296.414 488.892 296.414L485.27 290.416C520.288 290.365 521.129 263.572 506.974 262.5C500.317 262.016 491.647 274.34 470.096 271.763C472.825 268.446 473.947 263.419 475.273 259.719C470.07 259.234 463.924 259.285 459.028 256.886C469.56 255.534 472.212 251.987 480.96 245.353L470.81 241.627C485.576 234.252 484.633 221.416 485.092 208.045C477.389 212.485 468.26 219.375 458.644 216.186C456.349 215.42 454.845 214.348 454.794 211.95C468.642 206.488 477.466 185.181 444.362 167.267C423.271 155.861 371.6 130.752 406.591 103.677C411.386 100.002 416.588 96.6855 420.975 92.5765C426.459 96.7875 418.961 107.25 417.099 111.077C417.099 111.077 428.729 112.251 431.483 112.251C449.515 112.174 468.413 101.508 458.848 81.0428C466.015 82.5232 466.857 89.4377 469.05 95.3332C473.641 92.2194 481.598 85.5599 487.796 86.5031C482.772 102.503 461.781 116.921 445.434 120.187C461.934 129.169 492.539 135.855 508.632 116.512C519.905 138.381 504.194 147.516 488.765 158.974C547.526 185.768 538.829 215.879 577.39 239.559C572.417 241.907 550.076 237.187 548.087 236.906C556.502 247.751 560.43 252.344 562.828 257.627C565.174 262.577 566.195 268.14 568.515 280.21C570.351 289.728 573.692 299.22 585.22 305.523C580.706 313.664 570.658 307.233 566.475 306.136Z" fill="black"/>
<path fill-rule="evenodd" clip-rule="evenodd" d="M286.669 371.999L295.06 364.88L293.785 362.328C292.866 360.491 293.351 360.389 294.321 359.674L298.759 356.383C299.778 355.54 300.849 355.642 302.099 355.949L315.386 359.062H301.359C298.12 359.266 297.177 360.517 296.004 362.915L295.035 364.88L291.439 372.28C290.215 374.832 289.577 378.226 292.79 382.054L295.341 385.09L290.189 395.527H294.525L298.095 388.28C298.376 388.024 303.655 383.202 304.777 378.226C303.247 376.976 302.175 376.107 303.018 374.373L304.624 370.902C305.16 369.754 305.338 369.295 306.868 369.575L320.793 372.586C322.528 373.072 325.078 373.837 326.94 371.03C328.853 368.12 329.108 368.427 333.545 368.861L340.661 369.626C350.378 370.545 360.095 368.12 363.87 365.11C365.196 368.12 367.822 370.443 369.047 372.791C369.506 373.658 368.741 374.883 368.155 376.414L360.172 395.501H372.489L379.452 378.098C380.09 376.439 381.033 375.112 381.747 374.449L377.744 395.527H389.705L392.867 374.679C393.556 370.035 393.148 368.555 390.929 366.641C385.955 362.43 386.057 353.601 384.451 348.242C385.292 347.758 386.287 347.503 387.461 347.656C390.062 347.885 392.026 354.545 395.086 358.832C401.207 367.431 409.546 376.925 419.11 363.553C418.192 362.022 417.198 360.644 416.025 359.317L413.347 356.179C411.791 354.443 404.395 345.971 401.309 342.934C394.295 335.866 383.533 336.938 379.248 340.383C369.531 335.28 359.279 340.638 356.856 340.434L340.125 339.413C339.36 339.362 338.213 339.107 337.397 337.805L340.508 336.785C337.601 324.664 330.281 314.533 317.504 312.772C317.504 312.772 316.763 308.944 314.8 308.204L310.974 312.696C309.903 312.849 308.73 313.18 307.761 313.589L291.439 307.516L303.681 319.892C303.681 319.892 297.33 328.9 295.519 330.737C294.321 332.421 294.423 333.722 295.774 335.331L298.146 338.443C299.371 340.051 300.722 340 302.685 339.005L305.364 337.601C306.537 336.632 310.464 338.545 312.147 337.014C311.076 340.536 310.541 343.93 310.286 346.609L299.294 345.282C296.896 344.95 295.8 345.282 294.346 346.43L284.961 353.652C281.9 356 280.957 360.057 282.844 364.012L286.669 371.999ZM377.462 374.066L370.016 392.439H365.374L372.822 374.653C373.587 372.356 372.132 371.285 370.271 368.785C373.026 370.341 375.015 371.361 378.356 372.638C378.075 373.148 377.718 373.429 377.462 374.066ZM305.644 334.284L303.528 335.407C302.048 336.249 301.308 336.632 300.033 335.05L299.116 333.875C298.657 333.314 298.504 331.962 299.447 330.89L308.577 320.249L300.161 313.333L310.872 317.289L314.8 312.389C315.947 313.359 315.539 316.192 315.539 316.192C319.875 316.192 332.5 322.47 332.984 338.188C332.984 338.188 335.841 342.398 339.487 342.628L358.08 343.751C361.166 343.751 368.869 337.882 378.764 343.42C381.263 341.914 383.941 340.715 386.696 340.408C395.417 339.771 401.845 345.843 406.614 351.968C410.107 356.408 414.903 363.195 414.903 363.195C412.837 365.646 410.822 366.462 409.113 365.85C406.538 364.523 405.696 362.456 404.879 359.572C403.579 355.004 398.555 351.1 398.555 351.1C400.263 354.162 400.62 357.633 401.437 360.823C394.168 353.626 392.791 344.848 387.716 343.624C385.471 343.063 382.845 344.032 380.421 346.838C382.972 352.785 382.845 359.674 385.471 364.293C387.461 367.738 387.894 368.044 388.787 368.81C390.929 370.341 389.73 373.123 389.399 375.138L386.644 392.413H382.002L385.063 375.521C386.006 370.366 371.546 370.366 364.15 360.542C357.85 367.916 340.177 366.079 332.525 364.931C329.439 364.472 326.43 364.676 324.746 367.712C323.752 369.422 322.095 368.912 321.074 368.657L307.123 365.646C304.675 365.084 303.604 365.569 302.532 367.814L299.753 373.582C299.141 374.934 299.167 375.929 300.288 377.027L301.614 378.43C300.824 381.186 298.3 383.304 298.3 383.304L295.264 379.884C293.785 378.149 293.709 375.648 294.882 373.199L299.396 363.757C299.931 362.711 300.9 361.588 302.787 361.588L320.028 361.333L314.749 352.734C310.821 346.277 317.351 334.769 316.355 329.333C315.82 336.606 307.021 333.289 305.644 334.284ZM286.924 355.975L295.086 349.748C296.539 348.651 297.508 347.936 299.167 348.14L310.694 349.671C311.331 352.427 313.168 355.132 313.168 355.132L300.9 352.555C299.167 352.351 298.657 352.427 297.024 353.601L291.209 357.99C290.062 358.883 290.011 360.313 290.674 361.716L291.617 363.731L287.562 366.794L286.006 363.884C284.425 360.797 284.324 357.965 286.924 355.975Z" fill="black"/>
<path fill-rule="evenodd" clip-rule="evenodd" d="M322.48 134.455C326.943 137.542 334.849 140.834 334.849 140.834V135.577L317.43 128.917C317.43 128.917 317.43 131.061 322.48 134.455Z" fill="black"/>
<path fill-rule="evenodd" clip-rule="evenodd" d="M334.82 128.124V122.868L315.055 115.799C315.055 115.799 317.401 118.3 322.451 121.745C326.914 124.807 334.82 128.124 334.82 128.124Z" fill="black"/>
<path fill-rule="evenodd" clip-rule="evenodd" d="M334.825 116.181V110.899L313.172 102.937C313.172 102.937 317.406 106.357 322.456 109.802C326.919 112.889 334.825 116.181 334.825 116.181Z" fill="black"/>
<path fill-rule="evenodd" clip-rule="evenodd" d="M395.647 187.964H417.785C416.867 184.748 413.423 181.507 406.971 181.507C400.851 181.507 397.178 185.029 395.647 187.964Z" fill="black"/>
<path fill-rule="evenodd" clip-rule="evenodd" d="M372.49 102.937L350.889 110.899V116.181C350.889 116.181 358.794 112.889 363.258 109.802C368.282 106.357 372.49 102.937 372.49 102.937Z" fill="black"/>
<path fill-rule="evenodd" clip-rule="evenodd" d="M368.282 128.917L350.889 135.603V140.859C350.889 140.859 358.794 137.541 363.258 134.48C368.282 131.061 368.282 128.917 368.282 128.917Z" fill="black"/>
<path fill-rule="evenodd" clip-rule="evenodd" d="M370.628 115.799L350.862 122.868V128.124C350.862 128.124 358.793 124.832 363.231 121.771C368.281 118.3 370.628 115.799 370.628 115.799Z" fill="black"/>
<path fill-rule="evenodd" clip-rule="evenodd" d="M278.689 181.507C272.237 181.507 268.794 184.748 267.876 187.964H290.039C288.457 185.029 284.836 181.507 278.689 181.507Z" fill="black"/>
<path fill-rule="evenodd" clip-rule="evenodd" d="M386.826 88.7511C386.826 76.2981 365.912 65.1465 342.831 65.1465C319.75 65.1465 298.838 76.2981 298.838 88.7511L299.322 91.8128L308.503 144.711L264.891 170.152C260.25 172.883 254.435 180.386 253.696 187.939H261.653C262.979 180.386 268.921 172.016 280.067 172.526C290.141 173.062 296.108 179.185 302.025 187.939L303.556 190.235L305.749 193.68H241.606C246.325 203.147 250.788 213.201 250.788 224.097V357.531C250.788 391.852 277.134 408.209 305.672 408.209C327.708 408.209 330.692 407.213 342.857 419.385C354.971 407.213 357.955 408.209 380.041 408.209C408.554 408.209 434.926 391.852 434.926 357.531V224.123C434.926 213.226 439.389 203.173 444.107 193.706H379.914L382.133 190.261L383.663 187.965C389.554 179.211 395.548 173.087 405.622 172.551C416.716 172.041 422.709 180.411 424.01 187.965H431.941C431.228 180.411 425.387 172.883 420.771 170.178L377.16 144.737L386.367 91.8388L386.826 88.7511ZM307.764 94.8235L340.307 105.899V156.858L316.332 144.252L307.764 94.8235ZM315.772 202.943C320.056 208.812 326.994 213.15 335.206 214.834C335.895 217.922 337.578 221.315 340.842 224.046C339.49 233.156 343.392 241.653 353.186 243.899C354.206 248.544 357.088 252.04 361.908 253.698L355.099 261.558C352.497 264.569 349.106 265.538 346.3 265.181L315.899 261.736C317.226 258.368 313.706 254.463 304.091 256.123L316.052 222.694L308.758 207.204L294.935 218.994L293.915 254.055L288.049 251.171C280.322 247.855 278.077 261.813 285.422 261.864L288.329 261.889C288.151 263.318 288.585 264.901 289.707 265.385C288.329 265.972 287.921 268.575 289.656 269.494C287.896 270.31 287.666 272.964 289.07 274.112C287.539 276.689 287.309 282.278 292.639 283.681C297.001 284.829 299.73 280.134 300.622 277.404L347.906 292.051C354.614 293.966 359.358 292.893 364.918 288.019L377.262 277.226C375.706 284.294 378.256 290.648 383.638 292.766C383.638 292.766 382.873 299.12 383.102 301.952H259.995V224.123C259.995 216.875 257.904 209.629 255.404 202.943H315.772ZM366.626 232.467C364.025 237.443 364.28 243.16 367.34 248.339L365.3 250.329C356.425 249.232 352.931 235.989 352.931 235.989C352.752 237.188 352.65 238.336 352.676 239.51C347.498 237.596 344.234 233.003 344.49 226.7C346.453 227.797 348.646 228.563 350.993 228.971L351.605 225.092C345.408 224.021 341.786 220.142 340.409 215.549C340.103 215.523 339.848 215.447 339.566 215.421C340.664 215.498 341.76 215.6 342.882 215.6C346.555 215.6 350.049 215.039 353.313 214.069C355.889 217.744 360.455 220.372 365.045 220.882C364.306 223.944 364.663 227.746 366.626 232.467ZM379.761 267.477C378.868 268.677 378.154 270.055 377.695 271.56L372.748 276.102C373.742 268.856 368.871 260.308 364.433 256.811L369.687 251.657L370.732 252.729C368.973 257.347 372.416 266.406 379.761 267.477ZM355.864 265.207L359.945 261.2C364.076 264.824 369.534 272.913 367.826 280.619L363.388 284.702C362.469 285.596 361.526 286.234 360.557 286.82C363.337 279.956 359.792 269.392 355.864 265.207ZM347.09 268.601H347.218C348.697 268.83 350.279 268.575 351.707 267.988C354.818 272.428 357.241 282.533 353.517 288.836C351.401 288.887 349.335 288.504 347.396 287.943L345.867 287.484C349.004 282.61 348.569 273.985 347.09 268.601ZM336.813 267.324L342.551 268.039C343.469 272.811 342.857 281.054 339.822 285.749L333.14 283.809C336.073 279.828 337.45 271.637 336.813 267.324ZM324.851 265.87L331.814 266.686C332.502 270.514 331.202 278.654 328.575 282.533L321.485 280.491C324.315 276.74 325.335 270.132 324.851 265.87ZM296.669 264.007C293.431 265.054 292.002 262.706 292.13 260.716C298.481 258.393 301.311 259.898 303.173 261.073C304.882 262.144 306.31 265.207 308.605 267.12C308.223 269.723 307.433 273.5 306.488 276.026C299.985 274.368 299.654 268.626 302.076 265.13C300.724 263.548 299.297 263.139 296.669 264.007ZM292.13 276.689C292.13 276.689 294.068 277.506 296.516 277.685C296.236 279.037 295.19 280.313 293.533 279.956C292.155 279.649 291.543 277.966 292.13 276.689ZM285.728 258.061C284.122 256.99 284.836 254.642 286.621 254.642C288.585 254.693 291.186 256.913 293.762 258.01C293.762 258.01 287.003 258.929 285.728 258.061ZM292.334 271.586C293.737 272.939 297.945 272.428 297.945 272.428L298.098 273.271C296.261 275.72 291.161 274.623 292.334 271.586ZM297.996 268.805C294.986 270.004 291.9 268.37 292.843 266.431C294.247 267.707 298.149 267.069 298.149 267.069L297.996 268.805ZM302.434 233.768L296.669 254.769L298.634 220.882L307.56 213.252L312.1 223.23L300.622 256.148L303.658 233.998C303.938 232.416 302.689 232.238 302.434 233.768ZM302.842 259.235C302.842 259.235 309.268 258.929 311.079 259.618C312.406 260.18 311.512 262.425 309.778 262.17C307.968 261.94 302.842 259.235 302.842 259.235ZM312.916 264.339L319.903 265.207C320.439 269.035 319.444 275.516 316.945 279.139L310.186 277.175C311.972 272.913 312.406 268.907 312.916 264.339ZM425.719 357.556C425.719 373.785 418.22 386.11 405.75 392.949L410.213 383.865H405.877L400.138 395.501C394.196 397.746 387.463 398.996 380.016 398.996C357.266 398.996 351.248 399.916 342.831 408.311C334.389 399.916 328.371 398.996 305.647 398.996C298.251 398.996 291.518 397.797 285.601 395.552H285.754L291.492 383.865H287.182L282.158 394.097C280.959 393.536 279.786 392.923 278.663 392.26L282.795 383.865H278.51L275.451 390.116C265.708 382.946 259.969 371.718 259.969 357.556V306.519H425.668V357.556H425.719ZM430.335 202.943C427.759 209.629 425.693 216.875 425.693 224.123V301.952H416.639C412.533 297.972 409.064 284.702 409.064 284.702C406.821 289.475 409.396 299.146 411.794 301.952H400.138C397.257 298.049 394.757 284.217 394.757 284.217C391.264 288.198 393.482 298.941 395.649 301.952H387.897C387.412 296.415 388.993 290.393 388.993 290.393C384.938 289.653 380.628 287.509 380.653 283.018C382.694 284.931 383.536 284.906 386.367 284.855L389.656 282.253C378.741 282.61 378.231 270.616 386.902 265.003C378.256 265.283 371.803 260.129 374.941 250.942C368.795 247.753 366.626 237.341 371.166 232.773C367.877 229.201 367.34 222.184 369.432 217.411C365.071 217.411 360.174 215.676 357.445 212.69C357.241 212.793 356.986 212.869 356.756 212.946C362.214 210.726 366.83 207.255 369.942 202.968H430.335V202.943ZM397.333 165.483C388.356 167.04 380.628 178.037 374.303 187.965L373.589 189.113H366.83L366.805 190.286C366.116 197.942 358.848 208.327 342.831 208.327C335.436 208.327 329.85 206.056 326.025 202.968C322.709 200.263 320.617 196.921 319.597 193.731C319.215 192.583 318.985 191.409 318.883 190.286L318.832 189.113H312.125L311.41 187.965C305.06 178.063 297.332 167.065 288.38 165.483L312.839 151.27L342.882 167.601L372.875 151.27L397.333 165.483ZM369.33 144.252L345.382 156.858V105.899L377.925 94.8235L369.33 144.252ZM342.857 100.336L307.28 86.2755C310.288 79.1308 324.239 73.0313 342.857 73.0313C361.449 73.0313 375.374 79.1308 378.384 86.2755L342.857 100.336Z" fill="black"/>
<path fill-rule="evenodd" clip-rule="evenodd" d="M421.917 253.238L421.993 249.333C410.032 249.053 407.278 234.941 407.278 234.941C403.783 245.327 412.914 253.085 421.917 253.238Z" fill="black"/>
<path fill-rule="evenodd" clip-rule="evenodd" d="M406.819 277.148L405.621 273.448C395.42 276.05 390.14 259.873 390.14 259.873C386.876 271.636 398.25 279.955 406.819 277.148Z" fill="black"/>
<path fill-rule="evenodd" clip-rule="evenodd" d="M413.91 262.144C401.719 264.084 396.721 249.896 396.721 249.896C395.369 257.628 400.368 265.462 408.453 266.278C406.616 276.358 415.976 281.538 424.086 277.94L422.913 274.418C415.874 276.792 409.269 269.825 413.91 262.144Z" fill="black"/>
<path fill-rule="evenodd" clip-rule="evenodd" d="M406.614 221.648L406.716 217.744C390.623 214.426 391.975 203.352 391.975 203.352C388.507 213.788 397.636 221.495 406.614 221.648Z" fill="black"/>
<path fill-rule="evenodd" clip-rule="evenodd" d="M304.651 383.864L298.888 395.55H303.223L308.962 383.864H304.651Z" fill="black"/>
<path fill-rule="evenodd" clip-rule="evenodd" d="M313.349 383.864L307.61 395.55H311.971L317.658 383.864H313.349Z" fill="black"/>
<path fill-rule="evenodd" clip-rule="evenodd" d="M348.186 383.864L342.448 395.55H346.758L352.521 383.864H348.186Z" fill="black"/>
<path fill-rule="evenodd" clip-rule="evenodd" d="M356.906 383.864L351.117 395.55H355.478L361.19 383.864H356.906Z" fill="black"/>
<path fill-rule="evenodd" clip-rule="evenodd" d="M339.488 383.864L333.725 395.55H338.06L343.798 383.864H339.488Z" fill="black"/>
<path fill-rule="evenodd" clip-rule="evenodd" d="M390.367 395.55H394.702L400.441 383.864H396.105L390.367 395.55Z" fill="black"/>
<path fill-rule="evenodd" clip-rule="evenodd" d="M322.071 383.864L316.333 395.55H320.668L326.406 383.864H322.071Z" fill="black"/>
<path fill-rule="evenodd" clip-rule="evenodd" d="M330.74 383.864L325.002 395.55H329.363L335.101 383.864H330.74Z" fill="black"/>
<path fill-rule="evenodd" clip-rule="evenodd" d="M311.053 321.038C310.263 321.038 309.574 321.804 309.574 322.799C309.574 323.769 310.263 324.56 311.053 324.56C311.87 324.56 312.584 323.769 312.584 322.799C312.559 321.804 311.87 321.038 311.053 321.038Z" fill="black"/>
<path fill-rule="evenodd" clip-rule="evenodd" d="M342.858 57.2626C360.711 57.2626 375.018 63.183 382.898 69.5364C382.898 69.5364 385.271 55.3491 393.254 42.8962L378.869 44.5035L371.345 28.4788L356.885 36.0066L342.858 22.0732L328.831 36.0066L314.319 28.4788L306.795 44.5035L292.411 42.8962C300.42 55.3491 302.765 69.5364 302.765 69.5364C310.672 63.183 325.005 57.2626 342.858 57.2626ZM309.269 50.883L316.13 36.3376L328.831 43.1002L342.858 29.2439L356.885 43.1002L369.586 36.3376L376.37 50.883L384.812 49.5817C382.643 53.6387 381.011 57.1855 379.507 62.1617C370.275 56.7774 356.553 52.6185 342.858 52.6185C329.111 52.6185 315.416 56.7774 306.183 62.1617C304.653 57.1855 303.046 53.6387 300.853 49.5817L309.269 50.883Z" fill="black"/>
<path fill-rule="evenodd" clip-rule="evenodd" d="M357.544 28.6051C359.635 28.7842 361.497 27.2018 361.675 25.1353C361.879 23.0428 358.819 17.4795 358.819 17.4795C358.819 17.4795 354.254 22.4047 354.101 24.4972C353.897 26.5386 355.478 28.4011 357.544 28.6051Z" fill="black"/>
<path fill-rule="evenodd" clip-rule="evenodd" d="M381.109 37.1551C382.971 38.1503 385.241 37.4101 386.236 35.5467C387.255 33.7103 386.592 27.4067 386.592 27.4067C386.592 27.4067 380.523 30.1374 379.529 31.9998C378.559 33.8373 379.274 36.1338 381.109 37.1551Z" fill="black"/>
<path fill-rule="evenodd" clip-rule="evenodd" d="M328.142 28.6051C330.259 28.4011 331.814 26.5636 331.636 24.4972C331.432 22.4047 326.918 17.4795 326.918 17.4795C326.918 17.4795 323.882 23.0678 324.061 25.1353C324.214 27.2018 326.076 28.7842 328.142 28.6051Z" fill="black"/>
<path fill-rule="evenodd" clip-rule="evenodd" d="M304.601 37.1551C306.463 36.1338 307.151 33.8373 306.182 31.9998C305.213 30.1374 299.117 27.4067 299.117 27.4067C299.117 27.4067 298.48 33.7103 299.501 35.5467C300.444 37.4101 302.739 38.1503 304.601 37.1551Z" fill="black"/>
<path fill-rule="evenodd" clip-rule="evenodd" d="M587.304 166.786C592.329 164.999 596.204 160.202 598.143 155.762C585.366 153.925 551.42 139.66 523.519 151.271C533.976 141.345 543.361 140.069 544.253 125.778C548.589 128.892 555.909 130.652 560.041 123.227C557.159 114.73 549.889 121.619 548.87 119.272C547.442 116.005 558.025 120.267 560.296 109.217C552.058 106.386 549.609 113.122 548.13 111.565C546.779 110.085 553.358 107.253 548.513 98.3467C539.943 103.374 544.406 109.013 542.596 109.651C540.402 110.519 542.137 103.604 532.65 103.935C531.705 114.117 541.551 114.448 539.943 116.056C537.98 118.021 535.429 110.212 528.263 114.168C528.39 122.384 535.046 126.901 541.908 124.962C540.785 140.579 526.452 137.67 515.791 155.277C538.388 166.863 548.615 187.073 562.514 201.056C567.105 197.79 574.96 183.296 574.96 183.296C590.007 194.957 600.591 183.347 600.591 183.347C595.414 178.039 595.21 174.008 587.304 166.786ZM565.371 169.619C566.926 173.063 570.013 185.082 562.642 194.243C554.251 177.477 542.723 163.111 533.389 156.911C531.348 155.583 534.511 153.262 540.275 152.495C557.643 149.204 578.02 156.553 587.713 159.13C583.198 162.499 579.526 164.03 574.909 164.591C581.948 170.512 587.1 175.513 590.721 181.076C583.912 182.786 580.061 178.473 565.371 169.619Z" fill="black"/>
<path fill-rule="evenodd" clip-rule="evenodd" d="M420.288 430.255V411.169C405.547 417.931 386.801 423.417 362.675 425.586L361.579 432.399C363.618 432.68 366.219 432.935 369.688 433.165C360.762 434.389 349.209 434.977 342.883 434.977C336.533 434.977 325.006 434.389 316.054 433.165C319.496 432.935 322.098 432.68 324.138 432.399L323.042 425.586C298.915 423.417 280.144 417.931 265.429 411.169V430.255L245.434 438.472C260.252 446.179 277.288 452.457 296.977 457.534L294.63 465.522C305.904 468.839 323.934 472.207 342.832 472.207C361.732 472.207 379.736 468.814 391.035 465.522L388.714 457.534C408.378 452.457 425.465 446.179 440.282 438.472L420.288 430.255ZM256.12 438.906L269.612 433.471V417.931C278.283 421.273 289.657 424.744 305.98 428.138L298.329 453.069C281.674 449.241 267.52 444.087 256.12 438.906ZM342.858 467.639C327.632 467.639 312.764 465.369 300.063 462.23L308.148 436.074C313.503 437.324 326.918 438.957 342.858 438.957C358.824 438.957 372.162 437.299 377.543 436.074L385.654 462.23C372.902 465.369 358.059 467.639 342.858 467.639ZM387.413 453.069L379.762 428.138C396.085 424.769 407.459 421.273 416.131 417.931V433.471L429.597 438.906C418.197 444.087 404.093 449.241 387.413 453.069Z" fill="black"/>
<path fill-rule="evenodd" clip-rule="evenodd" d="M110.743 183.296C110.743 183.296 118.598 197.79 123.164 201.056C137.089 187.098 147.341 166.888 169.912 155.277C159.225 137.67 144.892 140.63 143.821 124.962C150.681 126.901 157.313 122.359 157.466 114.168C150.273 110.212 147.724 118.072 145.785 116.056C144.178 114.397 153.997 114.117 153.079 103.935C143.592 103.629 145.326 110.519 143.107 109.651C141.321 109.013 145.785 103.349 137.191 98.3467C132.371 107.278 138.976 110.085 137.599 111.565C136.144 113.122 133.645 106.411 125.433 109.217C127.651 120.267 138.287 116.005 136.858 119.272C135.838 121.619 128.596 114.73 125.739 123.227C129.82 130.678 137.165 128.917 141.474 125.804C142.393 140.12 151.753 141.319 162.235 151.271C134.308 139.66 100.363 153.925 87.5338 155.787C89.4983 160.202 93.3751 164.999 98.3992 166.735C90.4925 174.033 90.2884 178.064 85.1113 183.347C85.1113 183.347 95.6696 194.957 110.743 183.296ZM94.9304 181.101C98.5772 175.539 103.703 170.512 110.794 164.616C106.152 164.03 102.505 162.499 97.9651 159.13C107.682 156.553 128.086 149.179 145.479 152.495C151.192 153.262 154.405 155.583 152.314 156.911C142.98 163.111 131.426 177.477 123.035 194.243C115.691 185.082 118.802 173.088 120.307 169.643C105.642 178.473 101.817 182.786 94.9304 181.101Z" fill="black"/>
<path fill-rule="evenodd" clip-rule="evenodd" d="M330.638 172.653V181.048C333.519 177.552 339.131 178.242 339.131 178.242V190.362C339.131 190.362 338.927 196.334 336.835 198.886H342.879H348.924C346.807 196.334 346.628 190.362 346.628 190.362V178.267C346.628 178.267 352.213 177.577 355.096 181.074V172.678H342.879H330.638V172.653Z" fill="black"/>
<path d="M64.656 677.276V613.89H102.07V590.824H0V613.89H37.413V677.276H64.656ZM140.216 590.824H112.973V677.276H140.216V590.824ZM160.152 590.824V677.276H185.215V629.51L231.891 677.276H255.139V590.824H230.075V638.227L184.488 590.824H160.152ZM308.683 644.584L340.102 677.276H375.155L331.385 632.234L373.521 590.824H340.466L308.683 623.334H301.417V590.824H275.083V677.276H301.417V644.584H308.683ZM429.343 588.463C393.927 588.463 372.678 608.442 372.678 634.232C372.678 660.022 393.927 680 429.343 680C464.577 680 485.827 660.022 485.827 634.232C485.827 608.442 464.577 588.463 429.343 588.463ZM429.343 658.932C411.726 658.932 400.465 648.398 400.465 634.232C400.465 620.065 411.726 609.713 429.343 609.713C446.778 609.713 458.22 620.065 458.22 634.232C458.22 648.398 446.778 658.932 429.343 658.932ZM585.699 590.824H498.34V677.276H524.675V647.126H581.885V628.056H524.675V612.801H585.699V590.824ZM684.845 590.824H597.486V677.276H623.821V647.126H681.031V628.056H623.821V612.801H684.845V590.824Z" fill="black"/>
</svg>
