<svg width="726" height="350" viewBox="0 0 726 350" fill="none" xmlns="http://www.w3.org/2000/svg">
<rect y="5" width="200" height="40" rx="20" fill="#493548"/>
<path d="M37.8288 19.5881V16.5455H52.1641V19.5881H46.8203V34H43.1726V19.5881H37.8288ZM56.4084 34.2472C55.5732 34.2472 54.8288 34.1023 54.1754 33.8125C53.522 33.517 53.005 33.0824 52.6243 32.5085C52.2493 31.929 52.0618 31.2074 52.0618 30.3438C52.0618 29.6165 52.1953 29.0057 52.4624 28.5114C52.7294 28.017 53.093 27.6193 53.5533 27.3182C54.0135 27.017 54.5362 26.7898 55.1214 26.6364C55.7124 26.483 56.3317 26.375 56.9794 26.3125C57.7408 26.233 58.3544 26.1591 58.8203 26.0909C59.2862 26.017 59.6243 25.9091 59.8345 25.767C60.0447 25.625 60.1499 25.4148 60.1499 25.1364V25.0852C60.1499 24.5455 59.9794 24.1278 59.6385 23.8324C59.3033 23.5369 58.826 23.3892 58.2067 23.3892C57.5533 23.3892 57.0334 23.5341 56.647 23.8239C56.2607 24.108 56.005 24.4659 55.88 24.8977L52.522 24.625C52.6925 23.8295 53.0277 23.142 53.5277 22.5625C54.0277 21.9773 54.6726 21.5284 55.4624 21.2159C56.2578 20.8977 57.1783 20.7386 58.2237 20.7386C58.951 20.7386 59.647 20.8239 60.3118 20.9943C60.9822 21.1648 61.576 21.429 62.093 21.7869C62.6158 22.1449 63.0277 22.6051 63.3288 23.1676C63.63 23.7244 63.7805 24.392 63.7805 25.1705V34H60.3374V32.1847H60.2351C60.0249 32.5938 59.7436 32.9545 59.3913 33.267C59.0391 33.5739 58.6158 33.8153 58.1214 33.9915C57.6271 34.1619 57.0561 34.2472 56.4084 34.2472ZM57.4482 31.7415C57.9822 31.7415 58.4538 31.6364 58.8629 31.4261C59.272 31.2102 59.593 30.9205 59.826 30.5568C60.0589 30.1932 60.1754 29.7812 60.1754 29.321V27.9318C60.0618 28.0057 59.9055 28.0739 59.7067 28.1364C59.5135 28.1932 59.2947 28.2472 59.0504 28.2983C58.8061 28.3437 58.5618 28.3864 58.3175 28.4261C58.0732 28.4602 57.8516 28.4915 57.6527 28.5199C57.2266 28.5824 56.8544 28.6818 56.5362 28.8182C56.218 28.9545 55.9709 29.1392 55.7947 29.3722C55.6186 29.5994 55.5305 29.8835 55.5305 30.2244C55.5305 30.7188 55.7095 31.0966 56.0675 31.358C56.4311 31.6136 56.8913 31.7415 57.4482 31.7415ZM77.4893 24.642L74.1655 24.8466C74.1087 24.5625 73.9865 24.3068 73.799 24.0795C73.6115 23.8466 73.3643 23.6619 73.0575 23.5256C72.7564 23.3835 72.3956 23.3125 71.9751 23.3125C71.4126 23.3125 70.9382 23.4318 70.5518 23.6705C70.1655 23.9034 69.9723 24.2159 69.9723 24.608C69.9723 24.9205 70.0973 25.1847 70.3473 25.4006C70.5973 25.6165 71.0263 25.7898 71.6342 25.9205L74.0036 26.3977C75.2763 26.6591 76.2251 27.0795 76.8501 27.6591C77.4751 28.2386 77.7876 29 77.7876 29.9432C77.7876 30.8011 77.5348 31.554 77.0291 32.2017C76.5291 32.8494 75.8416 33.3551 74.9666 33.7188C74.0973 34.0767 73.0945 34.2557 71.9581 34.2557C70.2251 34.2557 68.8445 33.8949 67.8161 33.1733C66.7933 32.446 66.1939 31.4574 66.0178 30.2074L69.5888 30.0199C69.6967 30.5483 69.9581 30.9517 70.3729 31.2301C70.7876 31.5028 71.3189 31.6392 71.9666 31.6392C72.603 31.6392 73.1143 31.517 73.5007 31.2727C73.8928 31.0227 74.0916 30.7017 74.0973 30.3097C74.0916 29.9801 73.9524 29.7102 73.6797 29.5C73.407 29.2841 72.9865 29.1193 72.4183 29.0057L70.1513 28.554C68.8729 28.2983 67.9212 27.8551 67.2962 27.2244C66.6768 26.5937 66.3672 25.7898 66.3672 24.8125C66.3672 23.9716 66.5945 23.2472 67.049 22.6392C67.5092 22.0312 68.1541 21.5625 68.9837 21.233C69.8189 20.9034 70.7962 20.7386 71.9155 20.7386C73.5689 20.7386 74.87 21.0881 75.8189 21.7869C76.7734 22.4858 77.3303 23.4375 77.4893 24.642ZM83.3636 30.233L83.3722 25.8778H83.9006L88.0938 20.9091H92.2614L86.6278 27.4886H85.767L83.3636 30.233ZM80.0739 34V16.5455H83.7045V34H80.0739ZM88.2557 34L84.4034 28.2983L86.8239 25.733L92.5085 34H88.2557ZM99.6655 34V16.5455H103.356V30.9574H110.839V34H99.6655ZM116.947 34.2472C116.112 34.2472 115.368 34.1023 114.714 33.8125C114.061 33.517 113.544 33.0824 113.163 32.5085C112.788 31.929 112.601 31.2074 112.601 30.3438C112.601 29.6165 112.734 29.0057 113.001 28.5114C113.268 28.017 113.632 27.6193 114.092 27.3182C114.553 27.017 115.075 26.7898 115.661 26.6364C116.251 26.483 116.871 26.375 117.518 26.3125C118.28 26.233 118.893 26.1591 119.359 26.0909C119.825 26.017 120.163 25.9091 120.374 25.767C120.584 25.625 120.689 25.4148 120.689 25.1364V25.0852C120.689 24.5455 120.518 24.1278 120.178 23.8324C119.842 23.5369 119.365 23.3892 118.746 23.3892C118.092 23.3892 117.572 23.5341 117.186 23.8239C116.8 24.108 116.544 24.4659 116.419 24.8977L113.061 24.625C113.232 23.8295 113.567 23.142 114.067 22.5625C114.567 21.9773 115.212 21.5284 116.001 21.2159C116.797 20.8977 117.717 20.7386 118.763 20.7386C119.49 20.7386 120.186 20.8239 120.851 20.9943C121.521 21.1648 122.115 21.429 122.632 21.7869C123.155 22.1449 123.567 22.6051 123.868 23.1676C124.169 23.7244 124.32 24.392 124.32 25.1705V34H120.876V32.1847H120.774C120.564 32.5938 120.283 32.9545 119.93 33.267C119.578 33.5739 119.155 33.8153 118.661 33.9915C118.166 34.1619 117.595 34.2472 116.947 34.2472ZM117.987 31.7415C118.521 31.7415 118.993 31.6364 119.402 31.4261C119.811 31.2102 120.132 30.9205 120.365 30.5568C120.598 30.1932 120.714 29.7812 120.714 29.321V27.9318C120.601 28.0057 120.445 28.0739 120.246 28.1364C120.053 28.1932 119.834 28.2472 119.589 28.2983C119.345 28.3437 119.101 28.3864 118.857 28.4261C118.612 28.4602 118.391 28.4915 118.192 28.5199C117.766 28.5824 117.393 28.6818 117.075 28.8182C116.757 28.9545 116.51 29.1392 116.334 29.3722C116.158 29.5994 116.07 29.8835 116.07 30.2244C116.07 30.7188 116.249 31.0966 116.607 31.358C116.97 31.6136 117.43 31.7415 117.987 31.7415ZM128.909 38.9091C128.449 38.9091 128.017 38.8722 127.614 38.7983C127.216 38.7301 126.886 38.642 126.625 38.5341L127.443 35.8239C127.869 35.9545 128.253 36.0256 128.594 36.0369C128.94 36.0483 129.239 35.9688 129.489 35.7983C129.744 35.6278 129.952 35.3381 130.111 34.929L130.324 34.375L125.628 20.9091H129.446L132.156 30.5227H132.293L135.028 20.9091H138.872L133.784 35.4148C133.54 36.1193 133.207 36.733 132.787 37.2557C132.372 37.7841 131.847 38.1903 131.21 38.4744C130.574 38.7642 129.807 38.9091 128.909 38.9091ZM146.274 34.2557C144.928 34.2557 143.768 33.983 142.797 33.4375C141.831 32.8864 141.087 32.108 140.564 31.1023C140.041 30.0909 139.78 28.8949 139.78 27.5142C139.78 26.1676 140.041 24.9858 140.564 23.9688C141.087 22.9517 141.822 22.1591 142.771 21.5909C143.726 21.0227 144.845 20.7386 146.129 20.7386C146.993 20.7386 147.797 20.8778 148.541 21.1562C149.291 21.429 149.945 21.8409 150.501 22.392C151.064 22.9432 151.501 23.6364 151.814 24.4716C152.126 25.3011 152.283 26.2727 152.283 27.3864V28.3835H141.229V26.1335H148.865C148.865 25.6108 148.751 25.1477 148.524 24.7443C148.297 24.3409 147.982 24.0256 147.578 23.7983C147.18 23.5653 146.717 23.4489 146.189 23.4489C145.638 23.4489 145.149 23.5767 144.723 23.8324C144.303 24.0824 143.973 24.4205 143.734 24.8466C143.496 25.267 143.374 25.7358 143.368 26.2528V28.392C143.368 29.0398 143.487 29.5994 143.726 30.071C143.97 30.5426 144.314 30.9062 144.757 31.1619C145.2 31.4176 145.726 31.5455 146.334 31.5455C146.737 31.5455 147.107 31.4886 147.442 31.375C147.777 31.2614 148.064 31.0909 148.303 30.8636C148.541 30.6364 148.723 30.358 148.848 30.0284L152.206 30.25C152.036 31.0568 151.686 31.7614 151.158 32.3636C150.635 32.9602 149.959 33.4261 149.129 33.7614C148.305 34.0909 147.354 34.2557 146.274 34.2557ZM154.652 34V20.9091H158.172V23.1932H158.308C158.547 22.3807 158.947 21.767 159.51 21.3523C160.072 20.9318 160.72 20.7216 161.453 20.7216C161.635 20.7216 161.831 20.733 162.041 20.7557C162.251 20.7784 162.436 20.8097 162.595 20.8494V24.071C162.425 24.0199 162.189 23.9744 161.888 23.9347C161.587 23.8949 161.311 23.875 161.061 23.875C160.527 23.875 160.05 23.9915 159.629 24.2244C159.214 24.4517 158.885 24.7699 158.641 25.179C158.402 25.5881 158.283 26.0597 158.283 26.5938V34H154.652Z" fill="white"/>
<rect x="230" width="200" height="50" rx="20" fill="#D0C4DF"/>
<path d="M282.591 34V16.5455H294.353V19.5881H286.282V23.7472H293.748V26.7898H286.282V30.9574H294.387V34H282.591ZM300.849 26.4318V34H297.218V20.9091H300.679V23.2188H300.832C301.122 22.4574 301.608 21.8551 302.289 21.4119C302.971 20.9631 303.798 20.7386 304.77 20.7386C305.679 20.7386 306.471 20.9375 307.147 21.3352C307.824 21.733 308.349 22.3011 308.724 23.0398C309.099 23.7727 309.287 24.6477 309.287 25.6648V34H305.656V26.3125C305.662 25.5114 305.457 24.8864 305.042 24.4375C304.627 23.983 304.056 23.7557 303.329 23.7557C302.841 23.7557 302.409 23.8608 302.034 24.071C301.664 24.2812 301.375 24.5881 301.164 24.9915C300.96 25.3892 300.855 25.8693 300.849 26.4318ZM318.063 34.2557C316.722 34.2557 315.569 33.9716 314.603 33.4034C313.642 32.8295 312.904 32.0341 312.387 31.017C311.875 30 311.62 28.8295 311.62 27.5057C311.62 26.1648 311.878 24.9886 312.395 23.9773C312.918 22.9602 313.659 22.1676 314.62 21.5994C315.58 21.0256 316.722 20.7386 318.046 20.7386C319.188 20.7386 320.188 20.946 321.046 21.3608C321.904 21.7756 322.583 22.358 323.083 23.108C323.583 23.858 323.858 24.7386 323.909 25.75H320.483C320.387 25.0966 320.131 24.571 319.716 24.1733C319.307 23.7699 318.77 23.5682 318.105 23.5682C317.543 23.5682 317.051 23.7216 316.631 24.0284C316.216 24.3295 315.892 24.7699 315.659 25.3494C315.426 25.929 315.31 26.6307 315.31 27.4545C315.31 28.2898 315.424 29 315.651 29.5852C315.884 30.1705 316.211 30.6165 316.631 30.9233C317.051 31.2301 317.543 31.3835 318.105 31.3835C318.52 31.3835 318.892 31.2983 319.222 31.1278C319.557 30.9574 319.833 30.7102 320.049 30.3864C320.27 30.0568 320.415 29.6619 320.483 29.2017H323.909C323.853 30.2017 323.58 31.0824 323.091 31.8438C322.608 32.5994 321.941 33.1903 321.088 33.6165C320.236 34.0426 319.228 34.2557 318.063 34.2557ZM332.149 34.2557C330.825 34.2557 329.68 33.9744 328.714 33.4119C327.754 32.8437 327.012 32.054 326.49 31.0426C325.967 30.0256 325.706 28.8466 325.706 27.5057C325.706 26.1534 325.967 24.9716 326.49 23.9602C327.012 22.9432 327.754 22.1534 328.714 21.5909C329.68 21.0227 330.825 20.7386 332.149 20.7386C333.473 20.7386 334.615 21.0227 335.575 21.5909C336.541 22.1534 337.285 22.9432 337.808 23.9602C338.331 24.9716 338.592 26.1534 338.592 27.5057C338.592 28.8466 338.331 30.0256 337.808 31.0426C337.285 32.054 336.541 32.8437 335.575 33.4119C334.615 33.9744 333.473 34.2557 332.149 34.2557ZM332.166 31.4432C332.768 31.4432 333.271 31.2727 333.674 30.9318C334.078 30.5852 334.382 30.1136 334.586 29.517C334.797 28.9205 334.902 28.2415 334.902 27.4801C334.902 26.7188 334.797 26.0398 334.586 25.4432C334.382 24.8466 334.078 24.375 333.674 24.0284C333.271 23.6818 332.768 23.5085 332.166 23.5085C331.558 23.5085 331.047 23.6818 330.632 24.0284C330.223 24.375 329.913 24.8466 329.703 25.4432C329.498 26.0398 329.396 26.7188 329.396 27.4801C329.396 28.2415 329.498 28.9205 329.703 29.517C329.913 30.1136 330.223 30.5852 330.632 30.9318C331.047 31.2727 331.558 31.4432 332.166 31.4432ZM345.777 34.2131C344.782 34.2131 343.882 33.9574 343.075 33.446C342.274 32.929 341.637 32.1705 341.166 31.1705C340.7 30.1648 340.467 28.9318 340.467 27.4716C340.467 25.9716 340.708 24.7244 341.191 23.7301C341.674 22.7301 342.316 21.983 343.118 21.4886C343.924 20.9886 344.808 20.7386 345.768 20.7386C346.501 20.7386 347.112 20.8636 347.6 21.1136C348.095 21.358 348.493 21.6648 348.794 22.0341C349.1 22.3977 349.333 22.7557 349.493 23.108H349.603V16.5455H353.225V34H349.646V31.9034H349.493C349.322 32.267 349.081 32.6278 348.768 32.9858C348.461 33.3381 348.061 33.6307 347.566 33.8636C347.078 34.0966 346.481 34.2131 345.777 34.2131ZM346.927 31.3239C347.512 31.3239 348.007 31.1648 348.41 30.8466C348.819 30.5227 349.132 30.071 349.348 29.4915C349.569 28.9119 349.68 28.233 349.68 27.4545C349.68 26.6761 349.572 26 349.356 25.4261C349.14 24.8523 348.828 24.4091 348.419 24.0966C348.01 23.7841 347.512 23.6278 346.927 23.6278C346.331 23.6278 345.828 23.7898 345.419 24.1136C345.01 24.4375 344.7 24.8864 344.49 25.4602C344.279 26.0341 344.174 26.6989 344.174 27.4545C344.174 28.2159 344.279 28.8892 344.49 29.4744C344.706 30.054 345.015 30.5085 345.419 30.8381C345.828 31.1619 346.331 31.3239 346.927 31.3239ZM362.176 34.2557C360.83 34.2557 359.671 33.983 358.699 33.4375C357.733 32.8864 356.989 32.108 356.466 31.1023C355.944 30.0909 355.682 28.8949 355.682 27.5142C355.682 26.1676 355.944 24.9858 356.466 23.9688C356.989 22.9517 357.725 22.1591 358.674 21.5909C359.628 21.0227 360.748 20.7386 362.032 20.7386C362.895 20.7386 363.699 20.8778 364.444 21.1562C365.194 21.429 365.847 21.8409 366.404 22.392C366.966 22.9432 367.404 23.6364 367.716 24.4716C368.029 25.3011 368.185 26.2727 368.185 27.3864V28.3835H357.131V26.1335H364.767C364.767 25.6108 364.654 25.1477 364.426 24.7443C364.199 24.3409 363.884 24.0256 363.48 23.7983C363.083 23.5653 362.62 23.4489 362.091 23.4489C361.54 23.4489 361.051 23.5767 360.625 23.8324C360.205 24.0824 359.875 24.4205 359.637 24.8466C359.398 25.267 359.276 25.7358 359.27 26.2528V28.392C359.27 29.0398 359.39 29.5994 359.628 30.071C359.873 30.5426 360.216 30.9062 360.659 31.1619C361.103 31.4176 361.628 31.5455 362.236 31.5455C362.64 31.5455 363.009 31.4886 363.344 31.375C363.679 31.2614 363.966 31.0909 364.205 30.8636C364.444 30.6364 364.625 30.358 364.75 30.0284L368.108 30.25C367.938 31.0568 367.588 31.7614 367.06 32.3636C366.537 32.9602 365.861 33.4261 365.032 33.7614C364.208 34.0909 363.256 34.2557 362.176 34.2557ZM370.554 34V20.9091H374.074V23.1932H374.211C374.449 22.3807 374.85 21.767 375.412 21.3523C375.975 20.9318 376.623 20.7216 377.355 20.7216C377.537 20.7216 377.733 20.733 377.944 20.7557C378.154 20.7784 378.338 20.8097 378.498 20.8494V24.071C378.327 24.0199 378.091 23.9744 377.79 23.9347C377.489 23.8949 377.213 23.875 376.963 23.875C376.429 23.875 375.952 23.9915 375.532 24.2244C375.117 24.4517 374.787 24.7699 374.543 25.179C374.304 25.5881 374.185 26.0597 374.185 26.5938V34H370.554Z" fill="black"/>
<rect x="460" y="5" width="200" height="40" rx="20" fill="#4B4E6D"/>
<path d="M536.181 16.5455V34H532.55V16.5455H536.181ZM542.822 34.2472C541.987 34.2472 541.243 34.1023 540.589 33.8125C539.936 33.517 539.419 33.0824 539.038 32.5085C538.663 31.929 538.476 31.2074 538.476 30.3438C538.476 29.6165 538.609 29.0057 538.876 28.5114C539.143 28.017 539.507 27.6193 539.967 27.3182C540.428 27.017 540.95 26.7898 541.536 26.6364C542.126 26.483 542.746 26.375 543.393 26.3125C544.155 26.233 544.768 26.1591 545.234 26.0909C545.7 26.017 546.038 25.9091 546.249 25.767C546.459 25.625 546.564 25.4148 546.564 25.1364V25.0852C546.564 24.5455 546.393 24.1278 546.053 23.8324C545.717 23.5369 545.24 23.3892 544.621 23.3892C543.967 23.3892 543.447 23.5341 543.061 23.8239C542.675 24.108 542.419 24.4659 542.294 24.8977L538.936 24.625C539.107 23.8295 539.442 23.142 539.942 22.5625C540.442 21.9773 541.087 21.5284 541.876 21.2159C542.672 20.8977 543.592 20.7386 544.638 20.7386C545.365 20.7386 546.061 20.8239 546.726 20.9943C547.396 21.1648 547.99 21.429 548.507 21.7869C549.03 22.1449 549.442 22.6051 549.743 23.1676C550.044 23.7244 550.195 24.392 550.195 25.1705V34H546.751V32.1847H546.649C546.439 32.5938 546.158 32.9545 545.805 33.267C545.453 33.5739 545.03 33.8153 544.536 33.9915C544.041 34.1619 543.47 34.2472 542.822 34.2472ZM543.862 31.7415C544.396 31.7415 544.868 31.6364 545.277 31.4261C545.686 31.2102 546.007 30.9205 546.24 30.5568C546.473 30.1932 546.589 29.7812 546.589 29.321V27.9318C546.476 28.0057 546.32 28.0739 546.121 28.1364C545.928 28.1932 545.709 28.2472 545.464 28.2983C545.22 28.3437 544.976 28.3864 544.732 28.4261C544.487 28.4602 544.266 28.4915 544.067 28.5199C543.641 28.5824 543.268 28.6818 542.95 28.8182C542.632 28.9545 542.385 29.1392 542.209 29.3722C542.033 29.5994 541.945 29.8835 541.945 30.2244C541.945 30.7188 542.124 31.0966 542.482 31.358C542.845 31.6136 543.305 31.7415 543.862 31.7415ZM554.784 38.9091C554.324 38.9091 553.892 38.8722 553.489 38.7983C553.091 38.7301 552.761 38.642 552.5 38.5341L553.318 35.8239C553.744 35.9545 554.128 36.0256 554.469 36.0369C554.815 36.0483 555.114 35.9688 555.364 35.7983C555.619 35.6278 555.827 35.3381 555.986 34.929L556.199 34.375L551.503 20.9091H555.321L558.031 30.5227H558.168L560.903 20.9091H564.747L559.659 35.4148C559.415 36.1193 559.082 36.733 558.662 37.2557C558.247 37.7841 557.722 38.1903 557.085 38.4744C556.449 38.7642 555.682 38.9091 554.784 38.9091ZM572.149 34.2557C570.803 34.2557 569.643 33.983 568.672 33.4375C567.706 32.8864 566.962 32.108 566.439 31.1023C565.916 30.0909 565.655 28.8949 565.655 27.5142C565.655 26.1676 565.916 24.9858 566.439 23.9688C566.962 22.9517 567.697 22.1591 568.646 21.5909C569.601 21.0227 570.72 20.7386 572.004 20.7386C572.868 20.7386 573.672 20.8778 574.416 21.1562C575.166 21.429 575.82 21.8409 576.376 22.392C576.939 22.9432 577.376 23.6364 577.689 24.4716C578.001 25.3011 578.158 26.2727 578.158 27.3864V28.3835H567.104V26.1335H574.74C574.74 25.6108 574.626 25.1477 574.399 24.7443C574.172 24.3409 573.857 24.0256 573.453 23.7983C573.055 23.5653 572.592 23.4489 572.064 23.4489C571.513 23.4489 571.024 23.5767 570.598 23.8324C570.178 24.0824 569.848 24.4205 569.609 24.8466C569.371 25.267 569.249 25.7358 569.243 26.2528V28.392C569.243 29.0398 569.362 29.5994 569.601 30.071C569.845 30.5426 570.189 30.9062 570.632 31.1619C571.075 31.4176 571.601 31.5455 572.209 31.5455C572.612 31.5455 572.982 31.4886 573.317 31.375C573.652 31.2614 573.939 31.0909 574.178 30.8636C574.416 30.6364 574.598 30.358 574.723 30.0284L578.081 30.25C577.911 31.0568 577.561 31.7614 577.033 32.3636C576.51 32.9602 575.834 33.4261 575.004 33.7614C574.18 34.0909 573.229 34.2557 572.149 34.2557ZM580.527 34V20.9091H584.047V23.1932H584.183C584.422 22.3807 584.822 21.767 585.385 21.3523C585.947 20.9318 586.595 20.7216 587.328 20.7216C587.51 20.7216 587.706 20.733 587.916 20.7557C588.126 20.7784 588.311 20.8097 588.47 20.8494V24.071C588.3 24.0199 588.064 23.9744 587.763 23.9347C587.462 23.8949 587.186 23.875 586.936 23.875C586.402 23.875 585.925 23.9915 585.504 24.2244C585.089 24.4517 584.76 24.7699 584.516 25.179C584.277 25.5881 584.158 26.0597 584.158 26.5938V34H580.527Z" fill="white"/>
<path d="M695.899 10.7509C695.899 10.4667 696.1 10.2179 696.503 10.0047H697.178C699.31 10.0758 700.66 10.668 701.229 11.7814C701.371 12.1368 702.046 14.0082 703.254 17.3957C704.462 20.7833 705.659 24.0879 706.843 27.3097C708.028 30.5314 708.62 32.1896 708.62 32.2844C708.786 32.7582 708.94 33.149 709.082 33.457C709.224 33.765 709.33 33.99 709.402 34.1321C709.473 34.2743 709.532 34.3809 709.579 34.4519C709.627 34.523 709.674 34.5704 709.721 34.5941C709.769 34.6178 709.781 34.6651 709.757 34.7362C709.733 34.8073 709.662 34.9139 709.544 35.056H707.127C706.535 34.7244 706.156 34.3809 705.99 34.0255C705.824 33.6702 705.22 32.083 704.178 29.264L702.579 24.8223L702.082 25.3553C701.774 25.7343 701.217 26.3858 700.411 27.3097C699.606 28.2335 698.931 29.0153 698.386 29.6549C697.794 30.3419 697.059 31.1947 696.183 32.2133C694.975 33.6347 694.229 34.4638 693.944 34.7007C693.66 34.9376 693.328 35.0679 692.949 35.0916C692.097 35.0916 691.67 34.7125 691.67 33.9545C691.67 33.5518 691.836 33.1727 692.168 32.8174C692.499 32.4621 694.134 30.863 697.071 28.0203C697.782 27.3334 698.576 26.5635 699.452 25.7106C700.329 24.8578 700.98 24.2182 701.406 23.7918L702.01 23.2233C702.01 23.1996 701.418 21.5413 700.234 18.2486C699.049 14.9558 698.41 13.1791 698.315 12.9185C697.841 11.8525 697.237 11.3195 696.503 11.3195C696.1 11.3195 695.899 11.13 695.899 10.7509Z" fill="black"/>
<path d="M716.067 25.4745L715.741 25.6001C715.506 25.6839 715.171 25.7676 714.736 25.8514C714.3 25.9351 713.815 25.9937 713.279 26.0272H712.802V24.8716H713.279C714.066 24.8381 714.795 24.7125 715.464 24.4947C716.134 24.277 716.603 24.076 716.871 23.8918C717.139 23.7076 717.374 23.5233 717.575 23.3391C717.608 23.2889 717.709 23.2638 717.876 23.2638C718.027 23.2638 718.169 23.314 718.303 23.4145V30.9261L718.328 38.4628C718.446 38.58 718.546 38.6554 718.63 38.6889C718.714 38.7224 718.915 38.7559 719.233 38.7894C719.551 38.8229 720.07 38.8396 720.79 38.8396H721.444V39.9952H721.167C720.816 39.945 719.484 39.9199 717.173 39.9199C714.895 39.9199 713.58 39.945 713.229 39.9952H712.927V38.8396H713.58C713.949 38.8396 714.267 38.8396 714.535 38.8396C714.803 38.8396 715.012 38.8312 715.163 38.8145C715.314 38.7977 715.448 38.7726 715.565 38.7391C715.682 38.7056 715.749 38.6889 715.766 38.6889C715.783 38.6889 715.833 38.647 715.917 38.5633C716 38.4795 716.051 38.446 716.067 38.4628V25.4745Z" fill="black"/>
<rect y="105" width="200" height="40" rx="20" fill="#493548"/>
<path d="M37.8288 119.588V116.545H52.1641V119.588H46.8203V134H43.1726V119.588H37.8288ZM56.4084 134.247C55.5732 134.247 54.8288 134.102 54.1754 133.812C53.522 133.517 53.005 133.082 52.6243 132.509C52.2493 131.929 52.0618 131.207 52.0618 130.344C52.0618 129.616 52.1953 129.006 52.4624 128.511C52.7294 128.017 53.093 127.619 53.5533 127.318C54.0135 127.017 54.5362 126.79 55.1214 126.636C55.7124 126.483 56.3317 126.375 56.9794 126.312C57.7408 126.233 58.3544 126.159 58.8203 126.091C59.2862 126.017 59.6243 125.909 59.8345 125.767C60.0447 125.625 60.1499 125.415 60.1499 125.136V125.085C60.1499 124.545 59.9794 124.128 59.6385 123.832C59.3033 123.537 58.826 123.389 58.2067 123.389C57.5533 123.389 57.0334 123.534 56.647 123.824C56.2607 124.108 56.005 124.466 55.88 124.898L52.522 124.625C52.6925 123.83 53.0277 123.142 53.5277 122.562C54.0277 121.977 54.6726 121.528 55.4624 121.216C56.2578 120.898 57.1783 120.739 58.2237 120.739C58.951 120.739 59.647 120.824 60.3118 120.994C60.9822 121.165 61.576 121.429 62.093 121.787C62.6158 122.145 63.0277 122.605 63.3288 123.168C63.63 123.724 63.7805 124.392 63.7805 125.17V134H60.3374V132.185H60.2351C60.0249 132.594 59.7436 132.955 59.3913 133.267C59.0391 133.574 58.6158 133.815 58.1214 133.991C57.6271 134.162 57.0561 134.247 56.4084 134.247ZM57.4482 131.741C57.9822 131.741 58.4538 131.636 58.8629 131.426C59.272 131.21 59.593 130.92 59.826 130.557C60.0589 130.193 60.1754 129.781 60.1754 129.321V127.932C60.0618 128.006 59.9055 128.074 59.7067 128.136C59.5135 128.193 59.2947 128.247 59.0504 128.298C58.8061 128.344 58.5618 128.386 58.3175 128.426C58.0732 128.46 57.8516 128.491 57.6527 128.52C57.2266 128.582 56.8544 128.682 56.5362 128.818C56.218 128.955 55.9709 129.139 55.7947 129.372C55.6186 129.599 55.5305 129.884 55.5305 130.224C55.5305 130.719 55.7095 131.097 56.0675 131.358C56.4311 131.614 56.8913 131.741 57.4482 131.741ZM77.4893 124.642L74.1655 124.847C74.1087 124.562 73.9865 124.307 73.799 124.08C73.6115 123.847 73.3643 123.662 73.0575 123.526C72.7564 123.384 72.3956 123.312 71.9751 123.312C71.4126 123.312 70.9382 123.432 70.5518 123.67C70.1655 123.903 69.9723 124.216 69.9723 124.608C69.9723 124.92 70.0973 125.185 70.3473 125.401C70.5973 125.616 71.0263 125.79 71.6342 125.92L74.0036 126.398C75.2763 126.659 76.2251 127.08 76.8501 127.659C77.4751 128.239 77.7876 129 77.7876 129.943C77.7876 130.801 77.5348 131.554 77.0291 132.202C76.5291 132.849 75.8416 133.355 74.9666 133.719C74.0973 134.077 73.0945 134.256 71.9581 134.256C70.2251 134.256 68.8445 133.895 67.8161 133.173C66.7933 132.446 66.1939 131.457 66.0178 130.207L69.5888 130.02C69.6967 130.548 69.9581 130.952 70.3729 131.23C70.7876 131.503 71.3189 131.639 71.9666 131.639C72.603 131.639 73.1143 131.517 73.5007 131.273C73.8928 131.023 74.0916 130.702 74.0973 130.31C74.0916 129.98 73.9524 129.71 73.6797 129.5C73.407 129.284 72.9865 129.119 72.4183 129.006L70.1513 128.554C68.8729 128.298 67.9212 127.855 67.2962 127.224C66.6768 126.594 66.3672 125.79 66.3672 124.812C66.3672 123.972 66.5945 123.247 67.049 122.639C67.5092 122.031 68.1541 121.562 68.9837 121.233C69.8189 120.903 70.7962 120.739 71.9155 120.739C73.5689 120.739 74.87 121.088 75.8189 121.787C76.7734 122.486 77.3303 123.437 77.4893 124.642ZM83.3636 130.233L83.3722 125.878H83.9006L88.0938 120.909H92.2614L86.6278 127.489H85.767L83.3636 130.233ZM80.0739 134V116.545H83.7045V134H80.0739ZM88.2557 134L84.4034 128.298L86.8239 125.733L92.5085 134H88.2557ZM99.6655 134V116.545H103.356V130.957H110.839V134H99.6655ZM116.947 134.247C116.112 134.247 115.368 134.102 114.714 133.812C114.061 133.517 113.544 133.082 113.163 132.509C112.788 131.929 112.601 131.207 112.601 130.344C112.601 129.616 112.734 129.006 113.001 128.511C113.268 128.017 113.632 127.619 114.092 127.318C114.553 127.017 115.075 126.79 115.661 126.636C116.251 126.483 116.871 126.375 117.518 126.312C118.28 126.233 118.893 126.159 119.359 126.091C119.825 126.017 120.163 125.909 120.374 125.767C120.584 125.625 120.689 125.415 120.689 125.136V125.085C120.689 124.545 120.518 124.128 120.178 123.832C119.842 123.537 119.365 123.389 118.746 123.389C118.092 123.389 117.572 123.534 117.186 123.824C116.8 124.108 116.544 124.466 116.419 124.898L113.061 124.625C113.232 123.83 113.567 123.142 114.067 122.562C114.567 121.977 115.212 121.528 116.001 121.216C116.797 120.898 117.717 120.739 118.763 120.739C119.49 120.739 120.186 120.824 120.851 120.994C121.521 121.165 122.115 121.429 122.632 121.787C123.155 122.145 123.567 122.605 123.868 123.168C124.169 123.724 124.32 124.392 124.32 125.17V134H120.876V132.185H120.774C120.564 132.594 120.283 132.955 119.93 133.267C119.578 133.574 119.155 133.815 118.661 133.991C118.166 134.162 117.595 134.247 116.947 134.247ZM117.987 131.741C118.521 131.741 118.993 131.636 119.402 131.426C119.811 131.21 120.132 130.92 120.365 130.557C120.598 130.193 120.714 129.781 120.714 129.321V127.932C120.601 128.006 120.445 128.074 120.246 128.136C120.053 128.193 119.834 128.247 119.589 128.298C119.345 128.344 119.101 128.386 118.857 128.426C118.612 128.46 118.391 128.491 118.192 128.52C117.766 128.582 117.393 128.682 117.075 128.818C116.757 128.955 116.51 129.139 116.334 129.372C116.158 129.599 116.07 129.884 116.07 130.224C116.07 130.719 116.249 131.097 116.607 131.358C116.97 131.614 117.43 131.741 117.987 131.741ZM128.909 138.909C128.449 138.909 128.017 138.872 127.614 138.798C127.216 138.73 126.886 138.642 126.625 138.534L127.443 135.824C127.869 135.955 128.253 136.026 128.594 136.037C128.94 136.048 129.239 135.969 129.489 135.798C129.744 135.628 129.952 135.338 130.111 134.929L130.324 134.375L125.628 120.909H129.446L132.156 130.523H132.293L135.028 120.909H138.872L133.784 135.415C133.54 136.119 133.207 136.733 132.787 137.256C132.372 137.784 131.847 138.19 131.21 138.474C130.574 138.764 129.807 138.909 128.909 138.909ZM146.274 134.256C144.928 134.256 143.768 133.983 142.797 133.438C141.831 132.886 141.087 132.108 140.564 131.102C140.041 130.091 139.78 128.895 139.78 127.514C139.78 126.168 140.041 124.986 140.564 123.969C141.087 122.952 141.822 122.159 142.771 121.591C143.726 121.023 144.845 120.739 146.129 120.739C146.993 120.739 147.797 120.878 148.541 121.156C149.291 121.429 149.945 121.841 150.501 122.392C151.064 122.943 151.501 123.636 151.814 124.472C152.126 125.301 152.283 126.273 152.283 127.386V128.384H141.229V126.134H148.865C148.865 125.611 148.751 125.148 148.524 124.744C148.297 124.341 147.982 124.026 147.578 123.798C147.18 123.565 146.717 123.449 146.189 123.449C145.638 123.449 145.149 123.577 144.723 123.832C144.303 124.082 143.973 124.42 143.734 124.847C143.496 125.267 143.374 125.736 143.368 126.253V128.392C143.368 129.04 143.487 129.599 143.726 130.071C143.97 130.543 144.314 130.906 144.757 131.162C145.2 131.418 145.726 131.545 146.334 131.545C146.737 131.545 147.107 131.489 147.442 131.375C147.777 131.261 148.064 131.091 148.303 130.864C148.541 130.636 148.723 130.358 148.848 130.028L152.206 130.25C152.036 131.057 151.686 131.761 151.158 132.364C150.635 132.96 149.959 133.426 149.129 133.761C148.305 134.091 147.354 134.256 146.274 134.256ZM154.652 134V120.909H158.172V123.193H158.308C158.547 122.381 158.947 121.767 159.51 121.352C160.072 120.932 160.72 120.722 161.453 120.722C161.635 120.722 161.831 120.733 162.041 120.756C162.251 120.778 162.436 120.81 162.595 120.849V124.071C162.425 124.02 162.189 123.974 161.888 123.935C161.587 123.895 161.311 123.875 161.061 123.875C160.527 123.875 160.05 123.991 159.629 124.224C159.214 124.452 158.885 124.77 158.641 125.179C158.402 125.588 158.283 126.06 158.283 126.594V134H154.652Z" fill="white"/>
<rect x="230" y="100" width="200" height="50" rx="20" fill="#D0C4DF"/>
<path d="M282.591 134V116.545H294.353V119.588H286.282V123.747H293.748V126.79H286.282V130.957H294.387V134H282.591ZM300.849 126.432V134H297.218V120.909H300.679V123.219H300.832C301.122 122.457 301.608 121.855 302.289 121.412C302.971 120.963 303.798 120.739 304.77 120.739C305.679 120.739 306.471 120.938 307.147 121.335C307.824 121.733 308.349 122.301 308.724 123.04C309.099 123.773 309.287 124.648 309.287 125.665V134H305.656V126.312C305.662 125.511 305.457 124.886 305.042 124.438C304.627 123.983 304.056 123.756 303.329 123.756C302.841 123.756 302.409 123.861 302.034 124.071C301.664 124.281 301.375 124.588 301.164 124.991C300.96 125.389 300.855 125.869 300.849 126.432ZM318.063 134.256C316.722 134.256 315.569 133.972 314.603 133.403C313.642 132.83 312.904 132.034 312.387 131.017C311.875 130 311.62 128.83 311.62 127.506C311.62 126.165 311.878 124.989 312.395 123.977C312.918 122.96 313.659 122.168 314.62 121.599C315.58 121.026 316.722 120.739 318.046 120.739C319.188 120.739 320.188 120.946 321.046 121.361C321.904 121.776 322.583 122.358 323.083 123.108C323.583 123.858 323.858 124.739 323.909 125.75H320.483C320.387 125.097 320.131 124.571 319.716 124.173C319.307 123.77 318.77 123.568 318.105 123.568C317.543 123.568 317.051 123.722 316.631 124.028C316.216 124.33 315.892 124.77 315.659 125.349C315.426 125.929 315.31 126.631 315.31 127.455C315.31 128.29 315.424 129 315.651 129.585C315.884 130.17 316.211 130.616 316.631 130.923C317.051 131.23 317.543 131.384 318.105 131.384C318.52 131.384 318.892 131.298 319.222 131.128C319.557 130.957 319.833 130.71 320.049 130.386C320.27 130.057 320.415 129.662 320.483 129.202H323.909C323.853 130.202 323.58 131.082 323.091 131.844C322.608 132.599 321.941 133.19 321.088 133.616C320.236 134.043 319.228 134.256 318.063 134.256ZM332.149 134.256C330.825 134.256 329.68 133.974 328.714 133.412C327.754 132.844 327.012 132.054 326.49 131.043C325.967 130.026 325.706 128.847 325.706 127.506C325.706 126.153 325.967 124.972 326.49 123.96C327.012 122.943 327.754 122.153 328.714 121.591C329.68 121.023 330.825 120.739 332.149 120.739C333.473 120.739 334.615 121.023 335.575 121.591C336.541 122.153 337.285 122.943 337.808 123.96C338.331 124.972 338.592 126.153 338.592 127.506C338.592 128.847 338.331 130.026 337.808 131.043C337.285 132.054 336.541 132.844 335.575 133.412C334.615 133.974 333.473 134.256 332.149 134.256ZM332.166 131.443C332.768 131.443 333.271 131.273 333.674 130.932C334.078 130.585 334.382 130.114 334.586 129.517C334.797 128.92 334.902 128.241 334.902 127.48C334.902 126.719 334.797 126.04 334.586 125.443C334.382 124.847 334.078 124.375 333.674 124.028C333.271 123.682 332.768 123.509 332.166 123.509C331.558 123.509 331.047 123.682 330.632 124.028C330.223 124.375 329.913 124.847 329.703 125.443C329.498 126.04 329.396 126.719 329.396 127.48C329.396 128.241 329.498 128.92 329.703 129.517C329.913 130.114 330.223 130.585 330.632 130.932C331.047 131.273 331.558 131.443 332.166 131.443ZM345.777 134.213C344.782 134.213 343.882 133.957 343.075 133.446C342.274 132.929 341.637 132.17 341.166 131.17C340.7 130.165 340.467 128.932 340.467 127.472C340.467 125.972 340.708 124.724 341.191 123.73C341.674 122.73 342.316 121.983 343.118 121.489C343.924 120.989 344.808 120.739 345.768 120.739C346.501 120.739 347.112 120.864 347.6 121.114C348.095 121.358 348.493 121.665 348.794 122.034C349.1 122.398 349.333 122.756 349.493 123.108H349.603V116.545H353.225V134H349.646V131.903H349.493C349.322 132.267 349.081 132.628 348.768 132.986C348.461 133.338 348.061 133.631 347.566 133.864C347.078 134.097 346.481 134.213 345.777 134.213ZM346.927 131.324C347.512 131.324 348.007 131.165 348.41 130.847C348.819 130.523 349.132 130.071 349.348 129.491C349.569 128.912 349.68 128.233 349.68 127.455C349.68 126.676 349.572 126 349.356 125.426C349.14 124.852 348.828 124.409 348.419 124.097C348.01 123.784 347.512 123.628 346.927 123.628C346.331 123.628 345.828 123.79 345.419 124.114C345.01 124.437 344.7 124.886 344.49 125.46C344.279 126.034 344.174 126.699 344.174 127.455C344.174 128.216 344.279 128.889 344.49 129.474C344.706 130.054 345.015 130.509 345.419 130.838C345.828 131.162 346.331 131.324 346.927 131.324ZM362.176 134.256C360.83 134.256 359.671 133.983 358.699 133.438C357.733 132.886 356.989 132.108 356.466 131.102C355.944 130.091 355.682 128.895 355.682 127.514C355.682 126.168 355.944 124.986 356.466 123.969C356.989 122.952 357.725 122.159 358.674 121.591C359.628 121.023 360.748 120.739 362.032 120.739C362.895 120.739 363.699 120.878 364.444 121.156C365.194 121.429 365.847 121.841 366.404 122.392C366.966 122.943 367.404 123.636 367.716 124.472C368.029 125.301 368.185 126.273 368.185 127.386V128.384H357.131V126.134H364.767C364.767 125.611 364.654 125.148 364.426 124.744C364.199 124.341 363.884 124.026 363.48 123.798C363.083 123.565 362.62 123.449 362.091 123.449C361.54 123.449 361.051 123.577 360.625 123.832C360.205 124.082 359.875 124.42 359.637 124.847C359.398 125.267 359.276 125.736 359.27 126.253V128.392C359.27 129.04 359.39 129.599 359.628 130.071C359.873 130.543 360.216 130.906 360.659 131.162C361.103 131.418 361.628 131.545 362.236 131.545C362.64 131.545 363.009 131.489 363.344 131.375C363.679 131.261 363.966 131.091 364.205 130.864C364.444 130.636 364.625 130.358 364.75 130.028L368.108 130.25C367.938 131.057 367.588 131.761 367.06 132.364C366.537 132.96 365.861 133.426 365.032 133.761C364.208 134.091 363.256 134.256 362.176 134.256ZM370.554 134V120.909H374.074V123.193H374.211C374.449 122.381 374.85 121.767 375.412 121.352C375.975 120.932 376.623 120.722 377.355 120.722C377.537 120.722 377.733 120.733 377.944 120.756C378.154 120.778 378.338 120.81 378.498 120.849V124.071C378.327 124.02 378.091 123.974 377.79 123.935C377.489 123.895 377.213 123.875 376.963 123.875C376.429 123.875 375.952 123.991 375.532 124.224C375.117 124.452 374.787 124.77 374.543 125.179C374.304 125.588 374.185 126.06 374.185 126.594V134H370.554Z" fill="black"/>
<rect x="460" y="105" width="200" height="40" rx="20" fill="#4B4E6D"/>
<path d="M536.181 116.545V134H532.55V116.545H536.181ZM542.822 134.247C541.987 134.247 541.243 134.102 540.589 133.812C539.936 133.517 539.419 133.082 539.038 132.509C538.663 131.929 538.476 131.207 538.476 130.344C538.476 129.616 538.609 129.006 538.876 128.511C539.143 128.017 539.507 127.619 539.967 127.318C540.428 127.017 540.95 126.79 541.536 126.636C542.126 126.483 542.746 126.375 543.393 126.312C544.155 126.233 544.768 126.159 545.234 126.091C545.7 126.017 546.038 125.909 546.249 125.767C546.459 125.625 546.564 125.415 546.564 125.136V125.085C546.564 124.545 546.393 124.128 546.053 123.832C545.717 123.537 545.24 123.389 544.621 123.389C543.967 123.389 543.447 123.534 543.061 123.824C542.675 124.108 542.419 124.466 542.294 124.898L538.936 124.625C539.107 123.83 539.442 123.142 539.942 122.562C540.442 121.977 541.087 121.528 541.876 121.216C542.672 120.898 543.592 120.739 544.638 120.739C545.365 120.739 546.061 120.824 546.726 120.994C547.396 121.165 547.99 121.429 548.507 121.787C549.03 122.145 549.442 122.605 549.743 123.168C550.044 123.724 550.195 124.392 550.195 125.17V134H546.751V132.185H546.649C546.439 132.594 546.158 132.955 545.805 133.267C545.453 133.574 545.03 133.815 544.536 133.991C544.041 134.162 543.47 134.247 542.822 134.247ZM543.862 131.741C544.396 131.741 544.868 131.636 545.277 131.426C545.686 131.21 546.007 130.92 546.24 130.557C546.473 130.193 546.589 129.781 546.589 129.321V127.932C546.476 128.006 546.32 128.074 546.121 128.136C545.928 128.193 545.709 128.247 545.464 128.298C545.22 128.344 544.976 128.386 544.732 128.426C544.487 128.46 544.266 128.491 544.067 128.52C543.641 128.582 543.268 128.682 542.95 128.818C542.632 128.955 542.385 129.139 542.209 129.372C542.033 129.599 541.945 129.884 541.945 130.224C541.945 130.719 542.124 131.097 542.482 131.358C542.845 131.614 543.305 131.741 543.862 131.741ZM554.784 138.909C554.324 138.909 553.892 138.872 553.489 138.798C553.091 138.73 552.761 138.642 552.5 138.534L553.318 135.824C553.744 135.955 554.128 136.026 554.469 136.037C554.815 136.048 555.114 135.969 555.364 135.798C555.619 135.628 555.827 135.338 555.986 134.929L556.199 134.375L551.503 120.909H555.321L558.031 130.523H558.168L560.903 120.909H564.747L559.659 135.415C559.415 136.119 559.082 136.733 558.662 137.256C558.247 137.784 557.722 138.19 557.085 138.474C556.449 138.764 555.682 138.909 554.784 138.909ZM572.149 134.256C570.803 134.256 569.643 133.983 568.672 133.438C567.706 132.886 566.962 132.108 566.439 131.102C565.916 130.091 565.655 128.895 565.655 127.514C565.655 126.168 565.916 124.986 566.439 123.969C566.962 122.952 567.697 122.159 568.646 121.591C569.601 121.023 570.72 120.739 572.004 120.739C572.868 120.739 573.672 120.878 574.416 121.156C575.166 121.429 575.82 121.841 576.376 122.392C576.939 122.943 577.376 123.636 577.689 124.472C578.001 125.301 578.158 126.273 578.158 127.386V128.384H567.104V126.134H574.74C574.74 125.611 574.626 125.148 574.399 124.744C574.172 124.341 573.857 124.026 573.453 123.798C573.055 123.565 572.592 123.449 572.064 123.449C571.513 123.449 571.024 123.577 570.598 123.832C570.178 124.082 569.848 124.42 569.609 124.847C569.371 125.267 569.249 125.736 569.243 126.253V128.392C569.243 129.04 569.362 129.599 569.601 130.071C569.845 130.543 570.189 130.906 570.632 131.162C571.075 131.418 571.601 131.545 572.209 131.545C572.612 131.545 572.982 131.489 573.317 131.375C573.652 131.261 573.939 131.091 574.178 130.864C574.416 130.636 574.598 130.358 574.723 130.028L578.081 130.25C577.911 131.057 577.561 131.761 577.033 132.364C576.51 132.96 575.834 133.426 575.004 133.761C574.18 134.091 573.229 134.256 572.149 134.256ZM580.527 134V120.909H584.047V123.193H584.183C584.422 122.381 584.822 121.767 585.385 121.352C585.947 120.932 586.595 120.722 587.328 120.722C587.51 120.722 587.706 120.733 587.916 120.756C588.126 120.778 588.311 120.81 588.47 120.849V124.071C588.3 124.02 588.064 123.974 587.763 123.935C587.462 123.895 587.186 123.875 586.936 123.875C586.402 123.875 585.925 123.991 585.504 124.224C585.089 124.452 584.76 124.77 584.516 125.179C584.277 125.588 584.158 126.06 584.158 126.594V134H580.527Z" fill="white"/>
<path d="M695.899 110.751C695.899 110.467 696.1 110.218 696.503 110.005H697.178C699.31 110.076 700.66 110.668 701.229 111.782C701.371 112.137 702.046 114.008 703.254 117.396C704.462 120.784 705.659 124.088 706.843 127.31C708.028 130.532 708.62 132.19 708.62 132.285C708.786 132.758 708.94 133.149 709.082 133.457C709.224 133.765 709.33 133.99 709.402 134.132C709.473 134.275 709.532 134.381 709.579 134.452C709.627 134.523 709.674 134.571 709.721 134.594C709.769 134.618 709.781 134.665 709.757 134.736C709.733 134.808 709.662 134.914 709.544 135.056H707.127C706.535 134.725 706.156 134.381 705.99 134.026C705.824 133.67 705.22 132.083 704.178 129.264L702.579 124.823L702.082 125.356C701.774 125.735 701.217 126.386 700.411 127.31C699.606 128.234 698.931 129.016 698.386 129.655C697.794 130.342 697.059 131.195 696.183 132.214C694.975 133.635 694.229 134.464 693.944 134.701C693.66 134.938 693.328 135.068 692.949 135.092C692.097 135.092 691.67 134.713 691.67 133.955C691.67 133.552 691.836 133.173 692.168 132.818C692.499 132.462 694.134 130.863 697.071 128.021C697.782 127.334 698.576 126.564 699.452 125.711C700.329 124.858 700.98 124.218 701.406 123.792L702.01 123.224C702.01 123.2 701.418 121.542 700.234 118.249C699.049 114.956 698.41 113.179 698.315 112.919C697.841 111.853 697.237 111.32 696.503 111.32C696.1 111.32 695.899 111.13 695.899 110.751Z" fill="black"/>
<path d="M713.455 129.218C713.002 129.218 712.642 129.067 712.374 128.766C712.106 128.464 711.972 128.096 711.972 127.66C711.972 126.471 712.416 125.441 713.304 124.57C714.192 123.699 715.297 123.264 716.62 123.264C718.144 123.264 719.417 123.733 720.439 124.671C721.46 125.609 721.979 126.823 721.996 128.313C721.996 129.034 721.829 129.72 721.494 130.373C721.159 131.027 720.757 131.596 720.288 132.082C719.819 132.568 719.149 133.187 718.278 133.941C717.675 134.46 716.838 135.23 715.766 136.252L714.284 137.659L716.193 137.684C718.822 137.684 720.221 137.642 720.388 137.558C720.506 137.525 720.707 136.78 720.991 135.323V135.247H721.996V135.323C721.979 135.373 721.871 136.135 721.67 137.609C721.469 139.083 721.343 139.853 721.293 139.92V139.995H711.972V139.518V139.217C711.972 139.099 712.023 138.974 712.123 138.84C712.224 138.706 712.475 138.413 712.877 137.96C713.363 137.425 713.781 136.956 714.133 136.554C714.284 136.386 714.568 136.076 714.987 135.624C715.406 135.172 715.691 134.862 715.841 134.695C715.992 134.527 716.235 134.251 716.57 133.866C716.905 133.48 717.139 133.196 717.273 133.011C717.407 132.827 717.6 132.576 717.851 132.258C718.102 131.939 718.278 131.671 718.379 131.454C718.479 131.236 718.605 130.993 718.755 130.725C718.906 130.457 719.015 130.189 719.082 129.921C719.149 129.653 719.208 129.402 719.258 129.168C719.308 128.933 719.333 128.657 719.333 128.339C719.333 127.283 719.049 126.371 718.479 125.6C717.91 124.83 717.097 124.445 716.042 124.445C715.49 124.445 715.004 124.587 714.585 124.872C714.166 125.156 713.873 125.433 713.706 125.701C713.538 125.969 713.455 126.128 713.455 126.178C713.455 126.195 713.497 126.203 713.58 126.203C713.882 126.203 714.192 126.32 714.51 126.555C714.828 126.789 714.987 127.175 714.987 127.711C714.987 128.129 714.853 128.481 714.585 128.766C714.317 129.05 713.94 129.201 713.455 129.218Z" fill="black"/>
<rect y="205" width="200" height="40" rx="20" fill="#493548"/>
<path d="M37.8288 219.588V216.545H52.1641V219.588H46.8203V234H43.1726V219.588H37.8288ZM56.4084 234.247C55.5732 234.247 54.8288 234.102 54.1754 233.812C53.522 233.517 53.005 233.082 52.6243 232.509C52.2493 231.929 52.0618 231.207 52.0618 230.344C52.0618 229.616 52.1953 229.006 52.4624 228.511C52.7294 228.017 53.093 227.619 53.5533 227.318C54.0135 227.017 54.5362 226.79 55.1214 226.636C55.7124 226.483 56.3317 226.375 56.9794 226.312C57.7408 226.233 58.3544 226.159 58.8203 226.091C59.2862 226.017 59.6243 225.909 59.8345 225.767C60.0447 225.625 60.1499 225.415 60.1499 225.136V225.085C60.1499 224.545 59.9794 224.128 59.6385 223.832C59.3033 223.537 58.826 223.389 58.2067 223.389C57.5533 223.389 57.0334 223.534 56.647 223.824C56.2607 224.108 56.005 224.466 55.88 224.898L52.522 224.625C52.6925 223.83 53.0277 223.142 53.5277 222.562C54.0277 221.977 54.6726 221.528 55.4624 221.216C56.2578 220.898 57.1783 220.739 58.2237 220.739C58.951 220.739 59.647 220.824 60.3118 220.994C60.9822 221.165 61.576 221.429 62.093 221.787C62.6158 222.145 63.0277 222.605 63.3288 223.168C63.63 223.724 63.7805 224.392 63.7805 225.17V234H60.3374V232.185H60.2351C60.0249 232.594 59.7436 232.955 59.3913 233.267C59.0391 233.574 58.6158 233.815 58.1214 233.991C57.6271 234.162 57.0561 234.247 56.4084 234.247ZM57.4482 231.741C57.9822 231.741 58.4538 231.636 58.8629 231.426C59.272 231.21 59.593 230.92 59.826 230.557C60.0589 230.193 60.1754 229.781 60.1754 229.321V227.932C60.0618 228.006 59.9055 228.074 59.7067 228.136C59.5135 228.193 59.2947 228.247 59.0504 228.298C58.8061 228.344 58.5618 228.386 58.3175 228.426C58.0732 228.46 57.8516 228.491 57.6527 228.52C57.2266 228.582 56.8544 228.682 56.5362 228.818C56.218 228.955 55.9709 229.139 55.7947 229.372C55.6186 229.599 55.5305 229.884 55.5305 230.224C55.5305 230.719 55.7095 231.097 56.0675 231.358C56.4311 231.614 56.8913 231.741 57.4482 231.741ZM77.4893 224.642L74.1655 224.847C74.1087 224.562 73.9865 224.307 73.799 224.08C73.6115 223.847 73.3643 223.662 73.0575 223.526C72.7564 223.384 72.3956 223.312 71.9751 223.312C71.4126 223.312 70.9382 223.432 70.5518 223.67C70.1655 223.903 69.9723 224.216 69.9723 224.608C69.9723 224.92 70.0973 225.185 70.3473 225.401C70.5973 225.616 71.0263 225.79 71.6342 225.92L74.0036 226.398C75.2763 226.659 76.2251 227.08 76.8501 227.659C77.4751 228.239 77.7876 229 77.7876 229.943C77.7876 230.801 77.5348 231.554 77.0291 232.202C76.5291 232.849 75.8416 233.355 74.9666 233.719C74.0973 234.077 73.0945 234.256 71.9581 234.256C70.2251 234.256 68.8445 233.895 67.8161 233.173C66.7933 232.446 66.1939 231.457 66.0178 230.207L69.5888 230.02C69.6967 230.548 69.9581 230.952 70.3729 231.23C70.7876 231.503 71.3189 231.639 71.9666 231.639C72.603 231.639 73.1143 231.517 73.5007 231.273C73.8928 231.023 74.0916 230.702 74.0973 230.31C74.0916 229.98 73.9524 229.71 73.6797 229.5C73.407 229.284 72.9865 229.119 72.4183 229.006L70.1513 228.554C68.8729 228.298 67.9212 227.855 67.2962 227.224C66.6768 226.594 66.3672 225.79 66.3672 224.812C66.3672 223.972 66.5945 223.247 67.049 222.639C67.5092 222.031 68.1541 221.562 68.9837 221.233C69.8189 220.903 70.7962 220.739 71.9155 220.739C73.5689 220.739 74.87 221.088 75.8189 221.787C76.7734 222.486 77.3303 223.437 77.4893 224.642ZM83.3636 230.233L83.3722 225.878H83.9006L88.0938 220.909H92.2614L86.6278 227.489H85.767L83.3636 230.233ZM80.0739 234V216.545H83.7045V234H80.0739ZM88.2557 234L84.4034 228.298L86.8239 225.733L92.5085 234H88.2557ZM99.6655 234V216.545H103.356V230.957H110.839V234H99.6655ZM116.947 234.247C116.112 234.247 115.368 234.102 114.714 233.812C114.061 233.517 113.544 233.082 113.163 232.509C112.788 231.929 112.601 231.207 112.601 230.344C112.601 229.616 112.734 229.006 113.001 228.511C113.268 228.017 113.632 227.619 114.092 227.318C114.553 227.017 115.075 226.79 115.661 226.636C116.251 226.483 116.871 226.375 117.518 226.312C118.28 226.233 118.893 226.159 119.359 226.091C119.825 226.017 120.163 225.909 120.374 225.767C120.584 225.625 120.689 225.415 120.689 225.136V225.085C120.689 224.545 120.518 224.128 120.178 223.832C119.842 223.537 119.365 223.389 118.746 223.389C118.092 223.389 117.572 223.534 117.186 223.824C116.8 224.108 116.544 224.466 116.419 224.898L113.061 224.625C113.232 223.83 113.567 223.142 114.067 222.562C114.567 221.977 115.212 221.528 116.001 221.216C116.797 220.898 117.717 220.739 118.763 220.739C119.49 220.739 120.186 220.824 120.851 220.994C121.521 221.165 122.115 221.429 122.632 221.787C123.155 222.145 123.567 222.605 123.868 223.168C124.169 223.724 124.32 224.392 124.32 225.17V234H120.876V232.185H120.774C120.564 232.594 120.283 232.955 119.93 233.267C119.578 233.574 119.155 233.815 118.661 233.991C118.166 234.162 117.595 234.247 116.947 234.247ZM117.987 231.741C118.521 231.741 118.993 231.636 119.402 231.426C119.811 231.21 120.132 230.92 120.365 230.557C120.598 230.193 120.714 229.781 120.714 229.321V227.932C120.601 228.006 120.445 228.074 120.246 228.136C120.053 228.193 119.834 228.247 119.589 228.298C119.345 228.344 119.101 228.386 118.857 228.426C118.612 228.46 118.391 228.491 118.192 228.52C117.766 228.582 117.393 228.682 117.075 228.818C116.757 228.955 116.51 229.139 116.334 229.372C116.158 229.599 116.07 229.884 116.07 230.224C116.07 230.719 116.249 231.097 116.607 231.358C116.97 231.614 117.43 231.741 117.987 231.741ZM128.909 238.909C128.449 238.909 128.017 238.872 127.614 238.798C127.216 238.73 126.886 238.642 126.625 238.534L127.443 235.824C127.869 235.955 128.253 236.026 128.594 236.037C128.94 236.048 129.239 235.969 129.489 235.798C129.744 235.628 129.952 235.338 130.111 234.929L130.324 234.375L125.628 220.909H129.446L132.156 230.523H132.293L135.028 220.909H138.872L133.784 235.415C133.54 236.119 133.207 236.733 132.787 237.256C132.372 237.784 131.847 238.19 131.21 238.474C130.574 238.764 129.807 238.909 128.909 238.909ZM146.274 234.256C144.928 234.256 143.768 233.983 142.797 233.438C141.831 232.886 141.087 232.108 140.564 231.102C140.041 230.091 139.78 228.895 139.78 227.514C139.78 226.168 140.041 224.986 140.564 223.969C141.087 222.952 141.822 222.159 142.771 221.591C143.726 221.023 144.845 220.739 146.129 220.739C146.993 220.739 147.797 220.878 148.541 221.156C149.291 221.429 149.945 221.841 150.501 222.392C151.064 222.943 151.501 223.636 151.814 224.472C152.126 225.301 152.283 226.273 152.283 227.386V228.384H141.229V226.134H148.865C148.865 225.611 148.751 225.148 148.524 224.744C148.297 224.341 147.982 224.026 147.578 223.798C147.18 223.565 146.717 223.449 146.189 223.449C145.638 223.449 145.149 223.577 144.723 223.832C144.303 224.082 143.973 224.42 143.734 224.847C143.496 225.267 143.374 225.736 143.368 226.253V228.392C143.368 229.04 143.487 229.599 143.726 230.071C143.97 230.543 144.314 230.906 144.757 231.162C145.2 231.418 145.726 231.545 146.334 231.545C146.737 231.545 147.107 231.489 147.442 231.375C147.777 231.261 148.064 231.091 148.303 230.864C148.541 230.636 148.723 230.358 148.848 230.028L152.206 230.25C152.036 231.057 151.686 231.761 151.158 232.364C150.635 232.96 149.959 233.426 149.129 233.761C148.305 234.091 147.354 234.256 146.274 234.256ZM154.652 234V220.909H158.172V223.193H158.308C158.547 222.381 158.947 221.767 159.51 221.352C160.072 220.932 160.72 220.722 161.453 220.722C161.635 220.722 161.831 220.733 162.041 220.756C162.251 220.778 162.436 220.81 162.595 220.849V224.071C162.425 224.02 162.189 223.974 161.888 223.935C161.587 223.895 161.311 223.875 161.061 223.875C160.527 223.875 160.05 223.991 159.629 224.224C159.214 224.452 158.885 224.77 158.641 225.179C158.402 225.588 158.283 226.06 158.283 226.594V234H154.652Z" fill="white"/>
<rect x="230" y="200" width="200" height="50" rx="20" fill="#D0C4DF"/>
<path d="M282.591 234V216.545H294.353V219.588H286.282V223.747H293.748V226.79H286.282V230.957H294.387V234H282.591ZM300.849 226.432V234H297.218V220.909H300.679V223.219H300.832C301.122 222.457 301.608 221.855 302.289 221.412C302.971 220.963 303.798 220.739 304.77 220.739C305.679 220.739 306.471 220.938 307.147 221.335C307.824 221.733 308.349 222.301 308.724 223.04C309.099 223.773 309.287 224.648 309.287 225.665V234H305.656V226.312C305.662 225.511 305.457 224.886 305.042 224.438C304.627 223.983 304.056 223.756 303.329 223.756C302.841 223.756 302.409 223.861 302.034 224.071C301.664 224.281 301.375 224.588 301.164 224.991C300.96 225.389 300.855 225.869 300.849 226.432ZM318.063 234.256C316.722 234.256 315.569 233.972 314.603 233.403C313.642 232.83 312.904 232.034 312.387 231.017C311.875 230 311.62 228.83 311.62 227.506C311.62 226.165 311.878 224.989 312.395 223.977C312.918 222.96 313.659 222.168 314.62 221.599C315.58 221.026 316.722 220.739 318.046 220.739C319.188 220.739 320.188 220.946 321.046 221.361C321.904 221.776 322.583 222.358 323.083 223.108C323.583 223.858 323.858 224.739 323.909 225.75H320.483C320.387 225.097 320.131 224.571 319.716 224.173C319.307 223.77 318.77 223.568 318.105 223.568C317.543 223.568 317.051 223.722 316.631 224.028C316.216 224.33 315.892 224.77 315.659 225.349C315.426 225.929 315.31 226.631 315.31 227.455C315.31 228.29 315.424 229 315.651 229.585C315.884 230.17 316.211 230.616 316.631 230.923C317.051 231.23 317.543 231.384 318.105 231.384C318.52 231.384 318.892 231.298 319.222 231.128C319.557 230.957 319.833 230.71 320.049 230.386C320.27 230.057 320.415 229.662 320.483 229.202H323.909C323.853 230.202 323.58 231.082 323.091 231.844C322.608 232.599 321.941 233.19 321.088 233.616C320.236 234.043 319.228 234.256 318.063 234.256ZM332.149 234.256C330.825 234.256 329.68 233.974 328.714 233.412C327.754 232.844 327.012 232.054 326.49 231.043C325.967 230.026 325.706 228.847 325.706 227.506C325.706 226.153 325.967 224.972 326.49 223.96C327.012 222.943 327.754 222.153 328.714 221.591C329.68 221.023 330.825 220.739 332.149 220.739C333.473 220.739 334.615 221.023 335.575 221.591C336.541 222.153 337.285 222.943 337.808 223.96C338.331 224.972 338.592 226.153 338.592 227.506C338.592 228.847 338.331 230.026 337.808 231.043C337.285 232.054 336.541 232.844 335.575 233.412C334.615 233.974 333.473 234.256 332.149 234.256ZM332.166 231.443C332.768 231.443 333.271 231.273 333.674 230.932C334.078 230.585 334.382 230.114 334.586 229.517C334.797 228.92 334.902 228.241 334.902 227.48C334.902 226.719 334.797 226.04 334.586 225.443C334.382 224.847 334.078 224.375 333.674 224.028C333.271 223.682 332.768 223.509 332.166 223.509C331.558 223.509 331.047 223.682 330.632 224.028C330.223 224.375 329.913 224.847 329.703 225.443C329.498 226.04 329.396 226.719 329.396 227.48C329.396 228.241 329.498 228.92 329.703 229.517C329.913 230.114 330.223 230.585 330.632 230.932C331.047 231.273 331.558 231.443 332.166 231.443ZM345.777 234.213C344.782 234.213 343.882 233.957 343.075 233.446C342.274 232.929 341.637 232.17 341.166 231.17C340.7 230.165 340.467 228.932 340.467 227.472C340.467 225.972 340.708 224.724 341.191 223.73C341.674 222.73 342.316 221.983 343.118 221.489C343.924 220.989 344.808 220.739 345.768 220.739C346.501 220.739 347.112 220.864 347.6 221.114C348.095 221.358 348.493 221.665 348.794 222.034C349.1 222.398 349.333 222.756 349.493 223.108H349.603V216.545H353.225V234H349.646V231.903H349.493C349.322 232.267 349.081 232.628 348.768 232.986C348.461 233.338 348.061 233.631 347.566 233.864C347.078 234.097 346.481 234.213 345.777 234.213ZM346.927 231.324C347.512 231.324 348.007 231.165 348.41 230.847C348.819 230.523 349.132 230.071 349.348 229.491C349.569 228.912 349.68 228.233 349.68 227.455C349.68 226.676 349.572 226 349.356 225.426C349.14 224.852 348.828 224.409 348.419 224.097C348.01 223.784 347.512 223.628 346.927 223.628C346.331 223.628 345.828 223.79 345.419 224.114C345.01 224.437 344.7 224.886 344.49 225.46C344.279 226.034 344.174 226.699 344.174 227.455C344.174 228.216 344.279 228.889 344.49 229.474C344.706 230.054 345.015 230.509 345.419 230.838C345.828 231.162 346.331 231.324 346.927 231.324ZM362.176 234.256C360.83 234.256 359.671 233.983 358.699 233.438C357.733 232.886 356.989 232.108 356.466 231.102C355.944 230.091 355.682 228.895 355.682 227.514C355.682 226.168 355.944 224.986 356.466 223.969C356.989 222.952 357.725 222.159 358.674 221.591C359.628 221.023 360.748 220.739 362.032 220.739C362.895 220.739 363.699 220.878 364.444 221.156C365.194 221.429 365.847 221.841 366.404 222.392C366.966 222.943 367.404 223.636 367.716 224.472C368.029 225.301 368.185 226.273 368.185 227.386V228.384H357.131V226.134H364.767C364.767 225.611 364.654 225.148 364.426 224.744C364.199 224.341 363.884 224.026 363.48 223.798C363.083 223.565 362.62 223.449 362.091 223.449C361.54 223.449 361.051 223.577 360.625 223.832C360.205 224.082 359.875 224.42 359.637 224.847C359.398 225.267 359.276 225.736 359.27 226.253V228.392C359.27 229.04 359.39 229.599 359.628 230.071C359.873 230.543 360.216 230.906 360.659 231.162C361.103 231.418 361.628 231.545 362.236 231.545C362.64 231.545 363.009 231.489 363.344 231.375C363.679 231.261 363.966 231.091 364.205 230.864C364.444 230.636 364.625 230.358 364.75 230.028L368.108 230.25C367.938 231.057 367.588 231.761 367.06 232.364C366.537 232.96 365.861 233.426 365.032 233.761C364.208 234.091 363.256 234.256 362.176 234.256ZM370.554 234V220.909H374.074V223.193H374.211C374.449 222.381 374.85 221.767 375.412 221.352C375.975 220.932 376.623 220.722 377.355 220.722C377.537 220.722 377.733 220.733 377.944 220.756C378.154 220.778 378.338 220.81 378.498 220.849V224.071C378.327 224.02 378.091 223.974 377.79 223.935C377.489 223.895 377.213 223.875 376.963 223.875C376.429 223.875 375.952 223.991 375.532 224.224C375.117 224.452 374.787 224.77 374.543 225.179C374.304 225.588 374.185 226.06 374.185 226.594V234H370.554Z" fill="black"/>
<rect x="460" y="205" width="200" height="40" rx="20" fill="#4B4E6D"/>
<path d="M536.181 216.545V234H532.55V216.545H536.181ZM542.822 234.247C541.987 234.247 541.243 234.102 540.589 233.812C539.936 233.517 539.419 233.082 539.038 232.509C538.663 231.929 538.476 231.207 538.476 230.344C538.476 229.616 538.609 229.006 538.876 228.511C539.143 228.017 539.507 227.619 539.967 227.318C540.428 227.017 540.95 226.79 541.536 226.636C542.126 226.483 542.746 226.375 543.393 226.312C544.155 226.233 544.768 226.159 545.234 226.091C545.7 226.017 546.038 225.909 546.249 225.767C546.459 225.625 546.564 225.415 546.564 225.136V225.085C546.564 224.545 546.393 224.128 546.053 223.832C545.717 223.537 545.24 223.389 544.621 223.389C543.967 223.389 543.447 223.534 543.061 223.824C542.675 224.108 542.419 224.466 542.294 224.898L538.936 224.625C539.107 223.83 539.442 223.142 539.942 222.562C540.442 221.977 541.087 221.528 541.876 221.216C542.672 220.898 543.592 220.739 544.638 220.739C545.365 220.739 546.061 220.824 546.726 220.994C547.396 221.165 547.99 221.429 548.507 221.787C549.03 222.145 549.442 222.605 549.743 223.168C550.044 223.724 550.195 224.392 550.195 225.17V234H546.751V232.185H546.649C546.439 232.594 546.158 232.955 545.805 233.267C545.453 233.574 545.03 233.815 544.536 233.991C544.041 234.162 543.47 234.247 542.822 234.247ZM543.862 231.741C544.396 231.741 544.868 231.636 545.277 231.426C545.686 231.21 546.007 230.92 546.24 230.557C546.473 230.193 546.589 229.781 546.589 229.321V227.932C546.476 228.006 546.32 228.074 546.121 228.136C545.928 228.193 545.709 228.247 545.464 228.298C545.22 228.344 544.976 228.386 544.732 228.426C544.487 228.46 544.266 228.491 544.067 228.52C543.641 228.582 543.268 228.682 542.95 228.818C542.632 228.955 542.385 229.139 542.209 229.372C542.033 229.599 541.945 229.884 541.945 230.224C541.945 230.719 542.124 231.097 542.482 231.358C542.845 231.614 543.305 231.741 543.862 231.741ZM554.784 238.909C554.324 238.909 553.892 238.872 553.489 238.798C553.091 238.73 552.761 238.642 552.5 238.534L553.318 235.824C553.744 235.955 554.128 236.026 554.469 236.037C554.815 236.048 555.114 235.969 555.364 235.798C555.619 235.628 555.827 235.338 555.986 234.929L556.199 234.375L551.503 220.909H555.321L558.031 230.523H558.168L560.903 220.909H564.747L559.659 235.415C559.415 236.119 559.082 236.733 558.662 237.256C558.247 237.784 557.722 238.19 557.085 238.474C556.449 238.764 555.682 238.909 554.784 238.909ZM572.149 234.256C570.803 234.256 569.643 233.983 568.672 233.438C567.706 232.886 566.962 232.108 566.439 231.102C565.916 230.091 565.655 228.895 565.655 227.514C565.655 226.168 565.916 224.986 566.439 223.969C566.962 222.952 567.697 222.159 568.646 221.591C569.601 221.023 570.72 220.739 572.004 220.739C572.868 220.739 573.672 220.878 574.416 221.156C575.166 221.429 575.82 221.841 576.376 222.392C576.939 222.943 577.376 223.636 577.689 224.472C578.001 225.301 578.158 226.273 578.158 227.386V228.384H567.104V226.134H574.74C574.74 225.611 574.626 225.148 574.399 224.744C574.172 224.341 573.857 224.026 573.453 223.798C573.055 223.565 572.592 223.449 572.064 223.449C571.513 223.449 571.024 223.577 570.598 223.832C570.178 224.082 569.848 224.42 569.609 224.847C569.371 225.267 569.249 225.736 569.243 226.253V228.392C569.243 229.04 569.362 229.599 569.601 230.071C569.845 230.543 570.189 230.906 570.632 231.162C571.075 231.418 571.601 231.545 572.209 231.545C572.612 231.545 572.982 231.489 573.317 231.375C573.652 231.261 573.939 231.091 574.178 230.864C574.416 230.636 574.598 230.358 574.723 230.028L578.081 230.25C577.911 231.057 577.561 231.761 577.033 232.364C576.51 232.96 575.834 233.426 575.004 233.761C574.18 234.091 573.229 234.256 572.149 234.256ZM580.527 234V220.909H584.047V223.193H584.183C584.422 222.381 584.822 221.767 585.385 221.352C585.947 220.932 586.595 220.722 587.328 220.722C587.51 220.722 587.706 220.733 587.916 220.756C588.126 220.778 588.311 220.81 588.47 220.849V224.071C588.3 224.02 588.064 223.974 587.763 223.935C587.462 223.895 587.186 223.875 586.936 223.875C586.402 223.875 585.925 223.991 585.504 224.224C585.089 224.452 584.76 224.77 584.516 225.179C584.277 225.588 584.158 226.06 584.158 226.594V234H580.527Z" fill="white"/>
<path d="M695.793 210.735C695.793 210.456 695.99 210.212 696.386 210.003H697.049C699.142 210.072 700.468 210.654 701.027 211.747C701.166 212.096 701.829 213.934 703.016 217.261C704.202 220.587 705.377 223.832 706.54 226.996C707.703 230.16 708.285 231.788 708.285 231.881C708.448 232.347 708.599 232.73 708.738 233.033C708.878 233.335 708.983 233.556 709.052 233.696C709.122 233.835 709.18 233.94 709.227 234.01C709.273 234.08 709.32 234.126 709.366 234.149C709.413 234.173 709.425 234.219 709.401 234.289C709.378 234.359 709.308 234.463 709.192 234.603H706.819C706.238 234.277 705.865 233.94 705.703 233.591C705.54 233.242 704.947 231.684 703.923 228.915L702.353 224.553L701.864 225.077C701.562 225.449 701.015 226.089 700.224 226.996C699.433 227.903 698.77 228.671 698.235 229.299C697.654 229.974 696.932 230.811 696.072 231.811C694.885 233.207 694.153 234.021 693.873 234.254C693.594 234.487 693.269 234.615 692.896 234.638C692.059 234.638 691.64 234.266 691.64 233.521C691.64 233.126 691.803 232.754 692.129 232.405C692.454 232.056 694.059 230.486 696.944 227.694C697.642 227.019 698.421 226.263 699.282 225.426C700.143 224.588 700.782 223.96 701.201 223.542L701.794 222.983C701.794 222.96 701.213 221.332 700.05 218.098C698.887 214.864 698.258 213.12 698.165 212.864C697.7 211.817 697.107 211.294 696.386 211.294C695.99 211.294 695.793 211.108 695.793 210.735Z" fill="black"/>
<path d="M713.477 228.031C713.033 228.031 712.687 227.891 712.44 227.612C712.194 227.332 712.062 226.97 712.046 226.526C712.046 225.622 712.44 224.816 713.23 224.108C714.019 223.401 714.973 223.048 716.092 223.048C716.667 223.048 717.029 223.056 717.177 223.072C718.394 223.27 719.323 223.705 719.965 224.38C720.606 225.054 720.935 225.786 720.952 226.575C720.952 227.431 720.672 228.261 720.113 229.067C719.554 229.873 718.781 230.457 717.794 230.819L717.72 230.868C717.72 230.885 717.794 230.909 717.942 230.942C718.09 230.975 718.328 231.049 718.657 231.164C718.986 231.279 719.299 231.452 719.595 231.682C720.943 232.554 721.618 233.705 721.618 235.136C721.618 236.435 721.108 237.57 720.088 238.541C719.069 239.511 717.777 239.996 716.215 239.996C714.899 239.996 713.764 239.642 712.811 238.935C711.857 238.228 711.38 237.332 711.38 236.246C711.38 235.786 711.528 235.416 711.824 235.136C712.12 234.856 712.49 234.708 712.934 234.692C713.394 234.692 713.773 234.84 714.069 235.136C714.365 235.432 714.513 235.802 714.513 236.246C714.513 236.427 714.488 236.592 714.439 236.74C714.389 236.888 714.332 237.019 714.266 237.134C714.2 237.249 714.11 237.348 713.995 237.43C713.88 237.513 713.781 237.578 713.699 237.628C713.616 237.677 713.534 237.71 713.452 237.726C713.37 237.743 713.304 237.768 713.255 237.8L713.156 237.825C713.995 238.565 715.014 238.935 716.215 238.935C717.12 238.935 717.802 238.499 718.263 237.628C718.542 237.085 718.682 236.254 718.682 235.136V234.643C718.682 233.08 718.156 232.036 717.103 231.51C716.856 231.411 716.355 231.353 715.598 231.337L714.562 231.312L714.488 231.263C714.455 231.213 714.439 231.082 714.439 230.868C714.439 230.572 714.505 230.424 714.636 230.424C715.097 230.424 715.574 230.383 716.067 230.301C716.626 230.218 717.136 229.873 717.597 229.265C718.057 228.656 718.287 227.735 718.287 226.501V226.304C718.287 225.367 717.999 224.717 717.424 224.355C717.062 224.125 716.676 224.01 716.264 224.01C715.738 224.01 715.253 224.1 714.809 224.281C714.365 224.462 714.052 224.651 713.871 224.849C713.69 225.046 713.6 225.145 713.6 225.145H713.674C713.723 225.161 713.789 225.177 713.871 225.194C713.954 225.21 714.036 225.251 714.118 225.317C714.2 225.383 714.299 225.441 714.414 225.49C714.529 225.539 714.611 225.63 714.661 225.761C714.71 225.893 714.776 226.016 714.858 226.131C714.94 226.247 714.965 226.411 714.932 226.625C714.932 226.987 714.817 227.307 714.587 227.587C714.357 227.867 713.986 228.015 713.477 228.031Z" fill="black"/>
<rect y="305" width="200" height="40" rx="20" fill="#493548"/>
<path d="M37.8288 319.588V316.545H52.1641V319.588H46.8203V334H43.1726V319.588H37.8288ZM56.4084 334.247C55.5732 334.247 54.8288 334.102 54.1754 333.812C53.522 333.517 53.005 333.082 52.6243 332.509C52.2493 331.929 52.0618 331.207 52.0618 330.344C52.0618 329.616 52.1953 329.006 52.4624 328.511C52.7294 328.017 53.093 327.619 53.5533 327.318C54.0135 327.017 54.5362 326.79 55.1214 326.636C55.7124 326.483 56.3317 326.375 56.9794 326.312C57.7408 326.233 58.3544 326.159 58.8203 326.091C59.2862 326.017 59.6243 325.909 59.8345 325.767C60.0447 325.625 60.1499 325.415 60.1499 325.136V325.085C60.1499 324.545 59.9794 324.128 59.6385 323.832C59.3033 323.537 58.826 323.389 58.2067 323.389C57.5533 323.389 57.0334 323.534 56.647 323.824C56.2607 324.108 56.005 324.466 55.88 324.898L52.522 324.625C52.6925 323.83 53.0277 323.142 53.5277 322.562C54.0277 321.977 54.6726 321.528 55.4624 321.216C56.2578 320.898 57.1783 320.739 58.2237 320.739C58.951 320.739 59.647 320.824 60.3118 320.994C60.9822 321.165 61.576 321.429 62.093 321.787C62.6158 322.145 63.0277 322.605 63.3288 323.168C63.63 323.724 63.7805 324.392 63.7805 325.17V334H60.3374V332.185H60.2351C60.0249 332.594 59.7436 332.955 59.3913 333.267C59.0391 333.574 58.6158 333.815 58.1214 333.991C57.6271 334.162 57.0561 334.247 56.4084 334.247ZM57.4482 331.741C57.9822 331.741 58.4538 331.636 58.8629 331.426C59.272 331.21 59.593 330.92 59.826 330.557C60.0589 330.193 60.1754 329.781 60.1754 329.321V327.932C60.0618 328.006 59.9055 328.074 59.7067 328.136C59.5135 328.193 59.2947 328.247 59.0504 328.298C58.8061 328.344 58.5618 328.386 58.3175 328.426C58.0732 328.46 57.8516 328.491 57.6527 328.52C57.2266 328.582 56.8544 328.682 56.5362 328.818C56.218 328.955 55.9709 329.139 55.7947 329.372C55.6186 329.599 55.5305 329.884 55.5305 330.224C55.5305 330.719 55.7095 331.097 56.0675 331.358C56.4311 331.614 56.8913 331.741 57.4482 331.741ZM77.4893 324.642L74.1655 324.847C74.1087 324.562 73.9865 324.307 73.799 324.08C73.6115 323.847 73.3643 323.662 73.0575 323.526C72.7564 323.384 72.3956 323.312 71.9751 323.312C71.4126 323.312 70.9382 323.432 70.5518 323.67C70.1655 323.903 69.9723 324.216 69.9723 324.608C69.9723 324.92 70.0973 325.185 70.3473 325.401C70.5973 325.616 71.0263 325.79 71.6342 325.92L74.0036 326.398C75.2763 326.659 76.2251 327.08 76.8501 327.659C77.4751 328.239 77.7876 329 77.7876 329.943C77.7876 330.801 77.5348 331.554 77.0291 332.202C76.5291 332.849 75.8416 333.355 74.9666 333.719C74.0973 334.077 73.0945 334.256 71.9581 334.256C70.2251 334.256 68.8445 333.895 67.8161 333.173C66.7933 332.446 66.1939 331.457 66.0178 330.207L69.5888 330.02C69.6967 330.548 69.9581 330.952 70.3729 331.23C70.7876 331.503 71.3189 331.639 71.9666 331.639C72.603 331.639 73.1143 331.517 73.5007 331.273C73.8928 331.023 74.0916 330.702 74.0973 330.31C74.0916 329.98 73.9524 329.71 73.6797 329.5C73.407 329.284 72.9865 329.119 72.4183 329.006L70.1513 328.554C68.8729 328.298 67.9212 327.855 67.2962 327.224C66.6768 326.594 66.3672 325.79 66.3672 324.812C66.3672 323.972 66.5945 323.247 67.049 322.639C67.5092 322.031 68.1541 321.562 68.9837 321.233C69.8189 320.903 70.7962 320.739 71.9155 320.739C73.5689 320.739 74.87 321.088 75.8189 321.787C76.7734 322.486 77.3303 323.437 77.4893 324.642ZM83.3636 330.233L83.3722 325.878H83.9006L88.0938 320.909H92.2614L86.6278 327.489H85.767L83.3636 330.233ZM80.0739 334V316.545H83.7045V334H80.0739ZM88.2557 334L84.4034 328.298L86.8239 325.733L92.5085 334H88.2557ZM99.6655 334V316.545H103.356V330.957H110.839V334H99.6655ZM116.947 334.247C116.112 334.247 115.368 334.102 114.714 333.812C114.061 333.517 113.544 333.082 113.163 332.509C112.788 331.929 112.601 331.207 112.601 330.344C112.601 329.616 112.734 329.006 113.001 328.511C113.268 328.017 113.632 327.619 114.092 327.318C114.553 327.017 115.075 326.79 115.661 326.636C116.251 326.483 116.871 326.375 117.518 326.312C118.28 326.233 118.893 326.159 119.359 326.091C119.825 326.017 120.163 325.909 120.374 325.767C120.584 325.625 120.689 325.415 120.689 325.136V325.085C120.689 324.545 120.518 324.128 120.178 323.832C119.842 323.537 119.365 323.389 118.746 323.389C118.092 323.389 117.572 323.534 117.186 323.824C116.8 324.108 116.544 324.466 116.419 324.898L113.061 324.625C113.232 323.83 113.567 323.142 114.067 322.562C114.567 321.977 115.212 321.528 116.001 321.216C116.797 320.898 117.717 320.739 118.763 320.739C119.49 320.739 120.186 320.824 120.851 320.994C121.521 321.165 122.115 321.429 122.632 321.787C123.155 322.145 123.567 322.605 123.868 323.168C124.169 323.724 124.32 324.392 124.32 325.17V334H120.876V332.185H120.774C120.564 332.594 120.283 332.955 119.93 333.267C119.578 333.574 119.155 333.815 118.661 333.991C118.166 334.162 117.595 334.247 116.947 334.247ZM117.987 331.741C118.521 331.741 118.993 331.636 119.402 331.426C119.811 331.21 120.132 330.92 120.365 330.557C120.598 330.193 120.714 329.781 120.714 329.321V327.932C120.601 328.006 120.445 328.074 120.246 328.136C120.053 328.193 119.834 328.247 119.589 328.298C119.345 328.344 119.101 328.386 118.857 328.426C118.612 328.46 118.391 328.491 118.192 328.52C117.766 328.582 117.393 328.682 117.075 328.818C116.757 328.955 116.51 329.139 116.334 329.372C116.158 329.599 116.07 329.884 116.07 330.224C116.07 330.719 116.249 331.097 116.607 331.358C116.97 331.614 117.43 331.741 117.987 331.741ZM128.909 338.909C128.449 338.909 128.017 338.872 127.614 338.798C127.216 338.73 126.886 338.642 126.625 338.534L127.443 335.824C127.869 335.955 128.253 336.026 128.594 336.037C128.94 336.048 129.239 335.969 129.489 335.798C129.744 335.628 129.952 335.338 130.111 334.929L130.324 334.375L125.628 320.909H129.446L132.156 330.523H132.293L135.028 320.909H138.872L133.784 335.415C133.54 336.119 133.207 336.733 132.787 337.256C132.372 337.784 131.847 338.19 131.21 338.474C130.574 338.764 129.807 338.909 128.909 338.909ZM146.274 334.256C144.928 334.256 143.768 333.983 142.797 333.438C141.831 332.886 141.087 332.108 140.564 331.102C140.041 330.091 139.78 328.895 139.78 327.514C139.78 326.168 140.041 324.986 140.564 323.969C141.087 322.952 141.822 322.159 142.771 321.591C143.726 321.023 144.845 320.739 146.129 320.739C146.993 320.739 147.797 320.878 148.541 321.156C149.291 321.429 149.945 321.841 150.501 322.392C151.064 322.943 151.501 323.636 151.814 324.472C152.126 325.301 152.283 326.273 152.283 327.386V328.384H141.229V326.134H148.865C148.865 325.611 148.751 325.148 148.524 324.744C148.297 324.341 147.982 324.026 147.578 323.798C147.18 323.565 146.717 323.449 146.189 323.449C145.638 323.449 145.149 323.577 144.723 323.832C144.303 324.082 143.973 324.42 143.734 324.847C143.496 325.267 143.374 325.736 143.368 326.253V328.392C143.368 329.04 143.487 329.599 143.726 330.071C143.97 330.543 144.314 330.906 144.757 331.162C145.2 331.418 145.726 331.545 146.334 331.545C146.737 331.545 147.107 331.489 147.442 331.375C147.777 331.261 148.064 331.091 148.303 330.864C148.541 330.636 148.723 330.358 148.848 330.028L152.206 330.25C152.036 331.057 151.686 331.761 151.158 332.364C150.635 332.96 149.959 333.426 149.129 333.761C148.305 334.091 147.354 334.256 146.274 334.256ZM154.652 334V320.909H158.172V323.193H158.308C158.547 322.381 158.947 321.767 159.51 321.352C160.072 320.932 160.72 320.722 161.453 320.722C161.635 320.722 161.831 320.733 162.041 320.756C162.251 320.778 162.436 320.81 162.595 320.849V324.071C162.425 324.02 162.189 323.974 161.888 323.935C161.587 323.895 161.311 323.875 161.061 323.875C160.527 323.875 160.05 323.991 159.629 324.224C159.214 324.452 158.885 324.77 158.641 325.179C158.402 325.588 158.283 326.06 158.283 326.594V334H154.652Z" fill="white"/>
<rect x="230" y="300" width="200" height="50" rx="20" fill="#D0C4DF"/>
<path d="M282.591 334V316.545H294.353V319.588H286.282V323.747H293.748V326.79H286.282V330.957H294.387V334H282.591ZM300.849 326.432V334H297.218V320.909H300.679V323.219H300.832C301.122 322.457 301.608 321.855 302.289 321.412C302.971 320.963 303.798 320.739 304.77 320.739C305.679 320.739 306.471 320.938 307.147 321.335C307.824 321.733 308.349 322.301 308.724 323.04C309.099 323.773 309.287 324.648 309.287 325.665V334H305.656V326.312C305.662 325.511 305.457 324.886 305.042 324.438C304.627 323.983 304.056 323.756 303.329 323.756C302.841 323.756 302.409 323.861 302.034 324.071C301.664 324.281 301.375 324.588 301.164 324.991C300.96 325.389 300.855 325.869 300.849 326.432ZM318.063 334.256C316.722 334.256 315.569 333.972 314.603 333.403C313.642 332.83 312.904 332.034 312.387 331.017C311.875 330 311.62 328.83 311.62 327.506C311.62 326.165 311.878 324.989 312.395 323.977C312.918 322.96 313.659 322.168 314.62 321.599C315.58 321.026 316.722 320.739 318.046 320.739C319.188 320.739 320.188 320.946 321.046 321.361C321.904 321.776 322.583 322.358 323.083 323.108C323.583 323.858 323.858 324.739 323.909 325.75H320.483C320.387 325.097 320.131 324.571 319.716 324.173C319.307 323.77 318.77 323.568 318.105 323.568C317.543 323.568 317.051 323.722 316.631 324.028C316.216 324.33 315.892 324.77 315.659 325.349C315.426 325.929 315.31 326.631 315.31 327.455C315.31 328.29 315.424 329 315.651 329.585C315.884 330.17 316.211 330.616 316.631 330.923C317.051 331.23 317.543 331.384 318.105 331.384C318.52 331.384 318.892 331.298 319.222 331.128C319.557 330.957 319.833 330.71 320.049 330.386C320.27 330.057 320.415 329.662 320.483 329.202H323.909C323.853 330.202 323.58 331.082 323.091 331.844C322.608 332.599 321.941 333.19 321.088 333.616C320.236 334.043 319.228 334.256 318.063 334.256ZM332.149 334.256C330.825 334.256 329.68 333.974 328.714 333.412C327.754 332.844 327.012 332.054 326.49 331.043C325.967 330.026 325.706 328.847 325.706 327.506C325.706 326.153 325.967 324.972 326.49 323.96C327.012 322.943 327.754 322.153 328.714 321.591C329.68 321.023 330.825 320.739 332.149 320.739C333.473 320.739 334.615 321.023 335.575 321.591C336.541 322.153 337.285 322.943 337.808 323.96C338.331 324.972 338.592 326.153 338.592 327.506C338.592 328.847 338.331 330.026 337.808 331.043C337.285 332.054 336.541 332.844 335.575 333.412C334.615 333.974 333.473 334.256 332.149 334.256ZM332.166 331.443C332.768 331.443 333.271 331.273 333.674 330.932C334.078 330.585 334.382 330.114 334.586 329.517C334.797 328.92 334.902 328.241 334.902 327.48C334.902 326.719 334.797 326.04 334.586 325.443C334.382 324.847 334.078 324.375 333.674 324.028C333.271 323.682 332.768 323.509 332.166 323.509C331.558 323.509 331.047 323.682 330.632 324.028C330.223 324.375 329.913 324.847 329.703 325.443C329.498 326.04 329.396 326.719 329.396 327.48C329.396 328.241 329.498 328.92 329.703 329.517C329.913 330.114 330.223 330.585 330.632 330.932C331.047 331.273 331.558 331.443 332.166 331.443ZM345.777 334.213C344.782 334.213 343.882 333.957 343.075 333.446C342.274 332.929 341.637 332.17 341.166 331.17C340.7 330.165 340.467 328.932 340.467 327.472C340.467 325.972 340.708 324.724 341.191 323.73C341.674 322.73 342.316 321.983 343.118 321.489C343.924 320.989 344.808 320.739 345.768 320.739C346.501 320.739 347.112 320.864 347.6 321.114C348.095 321.358 348.493 321.665 348.794 322.034C349.1 322.398 349.333 322.756 349.493 323.108H349.603V316.545H353.225V334H349.646V331.903H349.493C349.322 332.267 349.081 332.628 348.768 332.986C348.461 333.338 348.061 333.631 347.566 333.864C347.078 334.097 346.481 334.213 345.777 334.213ZM346.927 331.324C347.512 331.324 348.007 331.165 348.41 330.847C348.819 330.523 349.132 330.071 349.348 329.491C349.569 328.912 349.68 328.233 349.68 327.455C349.68 326.676 349.572 326 349.356 325.426C349.14 324.852 348.828 324.409 348.419 324.097C348.01 323.784 347.512 323.628 346.927 323.628C346.331 323.628 345.828 323.79 345.419 324.114C345.01 324.437 344.7 324.886 344.49 325.46C344.279 326.034 344.174 326.699 344.174 327.455C344.174 328.216 344.279 328.889 344.49 329.474C344.706 330.054 345.015 330.509 345.419 330.838C345.828 331.162 346.331 331.324 346.927 331.324ZM362.176 334.256C360.83 334.256 359.671 333.983 358.699 333.438C357.733 332.886 356.989 332.108 356.466 331.102C355.944 330.091 355.682 328.895 355.682 327.514C355.682 326.168 355.944 324.986 356.466 323.969C356.989 322.952 357.725 322.159 358.674 321.591C359.628 321.023 360.748 320.739 362.032 320.739C362.895 320.739 363.699 320.878 364.444 321.156C365.194 321.429 365.847 321.841 366.404 322.392C366.966 322.943 367.404 323.636 367.716 324.472C368.029 325.301 368.185 326.273 368.185 327.386V328.384H357.131V326.134H364.767C364.767 325.611 364.654 325.148 364.426 324.744C364.199 324.341 363.884 324.026 363.48 323.798C363.083 323.565 362.62 323.449 362.091 323.449C361.54 323.449 361.051 323.577 360.625 323.832C360.205 324.082 359.875 324.42 359.637 324.847C359.398 325.267 359.276 325.736 359.27 326.253V328.392C359.27 329.04 359.39 329.599 359.628 330.071C359.873 330.543 360.216 330.906 360.659 331.162C361.103 331.418 361.628 331.545 362.236 331.545C362.64 331.545 363.009 331.489 363.344 331.375C363.679 331.261 363.966 331.091 364.205 330.864C364.444 330.636 364.625 330.358 364.75 330.028L368.108 330.25C367.938 331.057 367.588 331.761 367.06 332.364C366.537 332.96 365.861 333.426 365.032 333.761C364.208 334.091 363.256 334.256 362.176 334.256ZM370.554 334V320.909H374.074V323.193H374.211C374.449 322.381 374.85 321.767 375.412 321.352C375.975 320.932 376.623 320.722 377.355 320.722C377.537 320.722 377.733 320.733 377.944 320.756C378.154 320.778 378.338 320.81 378.498 320.849V324.071C378.327 324.02 378.091 323.974 377.79 323.935C377.489 323.895 377.213 323.875 376.963 323.875C376.429 323.875 375.952 323.991 375.532 324.224C375.117 324.452 374.787 324.77 374.543 325.179C374.304 325.588 374.185 326.06 374.185 326.594V334H370.554Z" fill="black"/>
<rect x="460" y="305" width="200" height="40" rx="20" fill="#4B4E6D"/>
<path d="M536.181 316.545V334H532.55V316.545H536.181ZM542.822 334.247C541.987 334.247 541.243 334.102 540.589 333.812C539.936 333.517 539.419 333.082 539.038 332.509C538.663 331.929 538.476 331.207 538.476 330.344C538.476 329.616 538.609 329.006 538.876 328.511C539.143 328.017 539.507 327.619 539.967 327.318C540.428 327.017 540.95 326.79 541.536 326.636C542.126 326.483 542.746 326.375 543.393 326.312C544.155 326.233 544.768 326.159 545.234 326.091C545.7 326.017 546.038 325.909 546.249 325.767C546.459 325.625 546.564 325.415 546.564 325.136V325.085C546.564 324.545 546.393 324.128 546.053 323.832C545.717 323.537 545.24 323.389 544.621 323.389C543.967 323.389 543.447 323.534 543.061 323.824C542.675 324.108 542.419 324.466 542.294 324.898L538.936 324.625C539.107 323.83 539.442 323.142 539.942 322.562C540.442 321.977 541.087 321.528 541.876 321.216C542.672 320.898 543.592 320.739 544.638 320.739C545.365 320.739 546.061 320.824 546.726 320.994C547.396 321.165 547.99 321.429 548.507 321.787C549.03 322.145 549.442 322.605 549.743 323.168C550.044 323.724 550.195 324.392 550.195 325.17V334H546.751V332.185H546.649C546.439 332.594 546.158 332.955 545.805 333.267C545.453 333.574 545.03 333.815 544.536 333.991C544.041 334.162 543.47 334.247 542.822 334.247ZM543.862 331.741C544.396 331.741 544.868 331.636 545.277 331.426C545.686 331.21 546.007 330.92 546.24 330.557C546.473 330.193 546.589 329.781 546.589 329.321V327.932C546.476 328.006 546.32 328.074 546.121 328.136C545.928 328.193 545.709 328.247 545.464 328.298C545.22 328.344 544.976 328.386 544.732 328.426C544.487 328.46 544.266 328.491 544.067 328.52C543.641 328.582 543.268 328.682 542.95 328.818C542.632 328.955 542.385 329.139 542.209 329.372C542.033 329.599 541.945 329.884 541.945 330.224C541.945 330.719 542.124 331.097 542.482 331.358C542.845 331.614 543.305 331.741 543.862 331.741ZM554.784 338.909C554.324 338.909 553.892 338.872 553.489 338.798C553.091 338.73 552.761 338.642 552.5 338.534L553.318 335.824C553.744 335.955 554.128 336.026 554.469 336.037C554.815 336.048 555.114 335.969 555.364 335.798C555.619 335.628 555.827 335.338 555.986 334.929L556.199 334.375L551.503 320.909H555.321L558.031 330.523H558.168L560.903 320.909H564.747L559.659 335.415C559.415 336.119 559.082 336.733 558.662 337.256C558.247 337.784 557.722 338.19 557.085 338.474C556.449 338.764 555.682 338.909 554.784 338.909ZM572.149 334.256C570.803 334.256 569.643 333.983 568.672 333.438C567.706 332.886 566.962 332.108 566.439 331.102C565.916 330.091 565.655 328.895 565.655 327.514C565.655 326.168 565.916 324.986 566.439 323.969C566.962 322.952 567.697 322.159 568.646 321.591C569.601 321.023 570.72 320.739 572.004 320.739C572.868 320.739 573.672 320.878 574.416 321.156C575.166 321.429 575.82 321.841 576.376 322.392C576.939 322.943 577.376 323.636 577.689 324.472C578.001 325.301 578.158 326.273 578.158 327.386V328.384H567.104V326.134H574.74C574.74 325.611 574.626 325.148 574.399 324.744C574.172 324.341 573.857 324.026 573.453 323.798C573.055 323.565 572.592 323.449 572.064 323.449C571.513 323.449 571.024 323.577 570.598 323.832C570.178 324.082 569.848 324.42 569.609 324.847C569.371 325.267 569.249 325.736 569.243 326.253V328.392C569.243 329.04 569.362 329.599 569.601 330.071C569.845 330.543 570.189 330.906 570.632 331.162C571.075 331.418 571.601 331.545 572.209 331.545C572.612 331.545 572.982 331.489 573.317 331.375C573.652 331.261 573.939 331.091 574.178 330.864C574.416 330.636 574.598 330.358 574.723 330.028L578.081 330.25C577.911 331.057 577.561 331.761 577.033 332.364C576.51 332.96 575.834 333.426 575.004 333.761C574.18 334.091 573.229 334.256 572.149 334.256ZM580.527 334V320.909H584.047V323.193H584.183C584.422 322.381 584.822 321.767 585.385 321.352C585.947 320.932 586.595 320.722 587.328 320.722C587.51 320.722 587.706 320.733 587.916 320.756C588.126 320.778 588.311 320.81 588.47 320.849V324.071C588.3 324.02 588.064 323.974 587.763 323.935C587.462 323.895 587.186 323.875 586.936 323.875C586.402 323.875 585.925 323.991 585.504 324.224C585.089 324.452 584.76 324.77 584.516 325.179C584.277 325.588 584.158 326.06 584.158 326.594V334H580.527Z" fill="white"/>
<path d="M695.899 310.751C695.899 310.467 696.1 310.218 696.503 310.005H697.178C699.31 310.076 700.66 310.668 701.229 311.782C701.371 312.137 702.046 314.008 703.254 317.396C704.462 320.784 705.659 324.088 706.843 327.31C708.028 330.532 708.62 332.19 708.62 332.285C708.786 332.758 708.94 333.149 709.082 333.457C709.224 333.765 709.33 333.99 709.402 334.132C709.473 334.275 709.532 334.381 709.579 334.452C709.627 334.523 709.674 334.571 709.721 334.594C709.769 334.618 709.781 334.665 709.757 334.736C709.733 334.808 709.662 334.914 709.544 335.056H707.127C706.535 334.725 706.156 334.381 705.99 334.026C705.824 333.67 705.22 332.083 704.178 329.264L702.579 324.823L702.082 325.356C701.774 325.735 701.217 326.386 700.411 327.31C699.606 328.234 698.931 329.016 698.386 329.655C697.794 330.342 697.059 331.195 696.183 332.214C694.975 333.635 694.229 334.464 693.944 334.701C693.66 334.938 693.328 335.068 692.949 335.092C692.097 335.092 691.67 334.713 691.67 333.955C691.67 333.552 691.836 333.173 692.168 332.818C692.499 332.462 694.134 330.863 697.071 328.021C697.782 327.334 698.576 326.564 699.452 325.711C700.329 324.858 700.98 324.218 701.406 323.792L702.01 323.224C702.01 323.2 701.418 321.542 700.234 318.249C699.049 314.956 698.41 313.179 698.315 312.919C697.841 311.853 697.237 311.32 696.503 311.32C696.1 311.32 695.899 311.13 695.899 310.751Z" fill="black"/>
<path d="M722.323 339.995C722.021 339.945 720.941 339.92 719.082 339.92C717.139 339.92 716.017 339.945 715.716 339.995H715.489V338.84H716.268C716.603 338.84 716.829 338.84 716.947 338.84C717.064 338.84 717.206 338.823 717.374 338.789C717.541 338.756 717.658 338.714 717.725 338.664C717.792 338.614 717.851 338.547 717.901 338.463C717.918 338.429 717.926 337.977 717.926 337.106V335.85H711.42V334.695L715.213 328.891C717.776 325.006 719.074 323.055 719.107 323.038C719.141 323.004 719.316 322.988 719.635 322.988H720.087L720.238 323.138V334.695H722.549V335.85H720.238V337.131C720.238 337.818 720.238 338.22 720.238 338.337C720.238 338.455 720.288 338.555 720.388 338.639C720.522 338.756 721 338.823 721.82 338.84H722.549V339.995H722.323ZM718.077 334.695V326.304L712.575 334.669L715.314 334.695H718.077Z" fill="black"/>
</svg>
